<?xml version="1.0" standalone="no"?>
<!DOCTYPE svg PUBLIC "-//W3C//DTD SVG 1.1//EN" "http://www.w3.org/Graphics/SVG/1.1/DTD/svg11.dtd" >
<svg xmlns="http://www.w3.org/2000/svg">
<metadata>
This is a custom SVG webfont generated by Font Squirrel.
</metadata>
<defs>
<font id="webfonto7CfSyov" horiz-adv-x="207" >
<font-face units-per-em="1000" ascent="800" descent="-200" />
<missing-glyph horiz-adv-x="351" />
<glyph unicode=" "  horiz-adv-x="351" />
<glyph unicode="&#x09;" horiz-adv-x="351" />
<glyph unicode="&#xa0;" horiz-adv-x="351" />
<glyph unicode="!" horiz-adv-x="238" d="M54 713h130l-5 -481h-131zM58 117q24 21 39 21.5t16 0.5q29 0 53 -20.5t24 -56.5q0 -38 -24 -60t-54 -22t-54 21.5t-24 58.5q0 36 24 57z" />
<glyph unicode="&#x22;" horiz-adv-x="340" d="M203 621q-23 56 -23 77v2q0 34 23.5 54.5t38.5 21t16 0.5q28 0 52 -21t24 -59v-2v-1q-5 -26 -14.5 -51t-16.5 -37.5t-21 -32.5t-17 -24l-25 -43l-11 49q-3 11 -26 67zM29 621q-23 56 -23 77v2q0 34 23.5 54.5t38.5 21t16 0.5q28 0 52 -21t24 -59v-2v-1q-5 -26 -14.5 -51 t-16.5 -37.5t-21 -32.5t-17 -24l-25 -43l-11 49q-3 11 -26 67z" />
<glyph unicode="#" horiz-adv-x="455" d="M85 640h117v-140h50v140h118v-140h58v-131h-58v-43h58v-127h-58v-149h-118v149h-50v-149h-117v149l-58 1v126h58v44h-58v131l58 -1v140zM202 370v-44h50v43z" />
<glyph unicode="$" horiz-adv-x="733" d="M322 10q-32 4 -65 19q-41 20 -63 36q-20 16 -37 31l-13 11l61 105l19 -18q23 -22 39 -34q14 -11 40 -22q25 -10 53 -10q41 0 55 8q18 10 41 47q13 21 13 41q0 14 -7 28q-14 33 -57 51q-66 27 -70 28q-62 22 -96 51q-39 34 -54 74q-13 33 -13 67q0 8 1 16q3 42 25 77.5 t61 58.5q30 18 66 24l-13 71h123l-13 -70q60 -9 104 -44l14 -12l-64 -96l-17 15q-32 29 -79 29q-10 0 -22 -2q-25 -3 -41 -20q-17 -17 -20 -38v-5q0 -18 15 -38q20 -28 59 -41l73 -25q32 -11 66 -38q31 -24 55 -61q26 -38 28 -86q1 -6 1 -11q0 -45 -21 -92 q-42 -97 -143 -120l9 -65h-121z" />
<glyph unicode="%" horiz-adv-x="560" d="M127 473q0 -4 1 -8q1 -8 10 -13q5 -3 11 -3h1h2h2l6 3q7 4 9 12q1 3 1 10v5q-1 6 -6 10q-7 6 -16 6q-4 0 -8 -2q-2 -1 -7 -4q-5 -4 -6 -12v-4zM39.5 541q19.5 29 47.5 40t57 11q3 0 21 -0.5t47 -14.5t48 -43t19 -65q0 -38 -19 -68t-48 -43.5t-46.5 -14t-18.5 -0.5 q-31 0 -60 13t-48 43.5t-19 72.5q0 40 19.5 69zM391 161q0 -4 1 -8q1 -8 9 -12q6 -3 11 -3h2q4 0 10 3q7 4 9 11q1 4 1 10v5q-2 9 -10 14q-5 3 -11 3q-5 0 -12 -4q-8 -4 -10 -14v-5zM304 230q20 29 47 40t55 11q4 0 22.5 -1t47 -15t48.5 -42.5t20 -65.5q0 -38 -19.5 -67.5 t-48.5 -43.5t-46.5 -14.5t-18.5 -0.5q-31 0 -59.5 13t-48 43.5t-19.5 72.5q0 41 20 70zM462 588l85 -88l-461 -477l-85 88z" />
<glyph unicode="&#x26;" horiz-adv-x="754" d="M509 224q20 52 20 104q0 8 -1 17l-1 21h124v-20q-3 -128 -51 -218l139 -148h-172l-48 50q-76 -61 -190 -72q-9 -1 -21 -1q-46 0 -98 17t-98.5 62.5t-63.5 109.5q-7 37 -7 67.5t11 61t24.5 54t32.5 45t32 33.5t23 20q-16 37 -18 58.5t-2 30.5q0 33 12.5 62t29.5 51.5 t35 36.5q38 30 76.5 34t53.5 4q43 0 90.5 -16.5t66.5 -54.5l6 -13l-82 -79l-13 20q-17 24 -42 25.5t-30 1.5q-39 0 -61 -23q-19 -23 -19 -48q0 -41 50 -93zM235 327q-34 -31 -50 -63t-16 -56q0 -16 5 -32q11 -33 43.5 -58.5t62 -34.5t48.5 -9q5 0 10 1q55 5 99 42z" />
<glyph unicode="'" horiz-adv-x="154" d="M0 699q0 35 23.5 56t38.5 21.5t17 0.5q26 0 49.5 -20t23.5 -58q0 -39 -20.5 -81.5t-41.5 -71.5l-17 -23l-16 24q-57 86 -57 152z" />
<glyph unicode="(" horiz-adv-x="268" d="M19 324q0 166 1 180q8 105 62 178.5t139 110.5l28 13v-144l-8 -6q-76 -54 -87 -153q-1 -8 -1 -177t1 -176q13 -101 86 -158l8 -6v-154l-29 14q-82 40 -135.5 116.5t-63.5 183.5q-1 12 -1 178z" />
<glyph unicode=")" horiz-adv-x="295" d="M197.5 -35q-53.5 -77 -135.5 -117l-29 -14v154l8 6q73 58 86 158q1 7 1 175.5t-1 177.5q-10 99 -86 154l-8 6v144l28 -13q85 -38 138.5 -111.5t62.5 -178.5v-357q-11 -107 -64.5 -184z" />
<glyph unicode="*" horiz-adv-x="212" d="M145 738zM146 737l29 -1h14l12 -38l-12 -40h-7l21 -21l-20 -34l-33 -24l-43 42l-42 -42l-36 24l-19 35l21 20h-10l-10 40l11 38l44 -1v20v16l40 8l40 -8v-34zM64 658h2h-2z" />
<glyph unicode="+" horiz-adv-x="495" d="M315 295v-155h-130l-1 155l-140 -1v131l143 -2l-3 146h130v-144l137 1v-130z" />
<glyph unicode="," horiz-adv-x="154" d="M24 125q23 20 52 20q1 1 2 1q28 0 51 -20q25 -22 25 -60q0 -25 -11 -47q-10 -20 -19 -33q-10 -13 -30 -29q-20 -15 -26 -18q-3 -1 -18 -11q-6 -4 -12 -4q-8 0 -14 8q-11 13 0 26q4 4 9 13q5 10 10 22q4 7 6 14q-16 2 -30 14q-16 18 -18 35q-1 5 -1 10v2v1q0 35 24 56z " />
<glyph unicode="-" horiz-adv-x="470" d="M458 197h-429v130l429 1v-131z" />
<glyph unicode="." horiz-adv-x="190" d="M19 117q24 21 39 21.5t16 0.5q29 0 53 -20.5t24 -56.5q0 -38 -24 -60t-54 -22t-54 21.5t-24 58.5q0 36 24 57z" />
<glyph unicode="/" horiz-adv-x="500" d="M184 -20h-150l289 742l143 3z" />
<glyph unicode="0" horiz-adv-x="569" d="M143 367q0 -127 40 -185q40 -56 72.5 -58.5t37.5 -2.5q52 0 87 46q45 59 45 193t-52 192q-27 30 -52.5 35.5t-38.5 5.5q-24 0 -54 -14t-54 -54q-31 -53 -31 -158zM68 599q46 71 106.5 96.5t110.5 25.5q25 0 75.5 -10.5t105.5 -67.5q92 -95 92 -285v-7v-8q0 -173 -69 -267 q-50 -69 -105 -84t-88 -15q-43 0 -102.5 21.5t-110.5 90.5q-72 96 -72 272q0 149 57 238z" />
<glyph unicode="1" horiz-adv-x="392" d="M151 580h-114l-1 160h252l1 -135l1 -507h1v-118h-137l-1 78h-1z" />
<glyph unicode="2" horiz-adv-x="540" d="M324 408q40 61 40 110q0 8 -2 17q-8 48 -60 61q-9 1 -18 1q-22 0 -49 -10q-35 -15 -46 -47l-8 -25l-115 74l8 16q57 117 203 117h7q110 -2 166 -62q46 -49 46 -124q0 -16 -2 -33q-12 -94 -86 -196l-148 -197l254 1v-131l-398 -1v1h-121z" />
<glyph unicode="3" horiz-adv-x="510" d="M328 471q14 31 14 51q0 19 -9 37q-16 32 -60 41q-12 3 -27 3q-21 0 -49.5 -6.5t-44.5 -34.5l-10 -18l-112 71l13 17q66 90 210 90h10q71 -1 123.5 -35.5t70.5 -76.5t18 -80q0 -20 -7 -56.5t-43 -82.5q35 -40 55.5 -87.5t20.5 -93.5q0 -2 -0.5 -27t-20.5 -68.5 t-54.5 -74.5t-82 -49.5t-100.5 -18.5h-7h-8q-106 0 -208 54l-22 12l84 99l14 -7q34 -16 62 -23.5t40 -7.5t27 0.5t22 0.5q38 1 65 18.5t37 44.5t10 56q0 3 -0.5 18.5t-19 40.5t-49.5 36h-107l-5 118l104 2q32 6 46 37z" />
<glyph unicode="4" horiz-adv-x="477" d="M299 263v182l-122 -182h122zM434 264h46l-1 -125h-42v-159h-140v162h-300v69l364 531h73v-478z" />
<glyph unicode="5" horiz-adv-x="509" d="M91 720h332l3 -120h-202l-3 -158h8q55 0 94.5 -7.5t86.5 -38.5q40 -27 62 -68t24.5 -69t2.5 -39q0 -35 -12.5 -75t-42 -77.5t-80.5 -60.5t-114 -23h-8h-7q-54 0 -112 20.5t-104 51.5l-18 12l72 93l15 -9q49 -29 80 -39.5t77 -10.5q40 0 70 23.5t38.5 49t8.5 45.5 q0 12 -4 34.5t-26 39.5q-43 34 -105 38l-137 -5z" />
<glyph unicode="6" horiz-adv-x="590" d="M23 308q-2 35 -2 72q-1 2 -1 3q0 38 13 88q12 51 37 98q37 69 104 111t142 42h3h3q87 0 133 -28l16 -9l-57 -117l-20 20q-5 5 -27 11q-13 3 -31 3q-12 0 -30 -2q-41 -5 -71 -26q-30 -22 -47 -55q-18 -35 -26 -72q-5 -24 -7 -49q25 21 53 35q47 22 84 24q9 1 18 1 q28 0 57 -6q38 -9 57 -17q15 -7 33 -18q40 -23 67 -76t27 -117q0 -88 -46 -146q-75 -95 -200 -96h-2q-137 0 -211 111q-20 28 -40 81q-21 54 -24 79q-4 19 -5 55zM174 226q0 -38 18 -65q19 -27 46 -39t59 -12h2q33 1 62 15q27 13 46 41q18 28 18 67q0 41 -24 67 q-26 27 -65 38q-13 2 -23 2h-10q-16 -3 -37 -9q-33 -10 -63 -45q-29 -34 -29 -60z" />
<glyph unicode="7" horiz-adv-x="481" d="M52 711l406 -1v-101l2 -7l-282 -622h-168l283 598h-241v133z" />
<glyph unicode="8" horiz-adv-x="555" d="M67 603q21 47 56 74q61 47 104 47l45 1q85 0 144 -43q38 -27 61.5 -75t23.5 -103q-3 -46 -52 -116q91 -70 91 -181q0 -93 -43 -148q-37 -47 -95.5 -71.5t-122.5 -24.5q-69 0 -130 28t-97 81q-37 53 -37 134q0 105 86 176q-52 62 -55 123q0 51 21 98zM156 212 q0 -38 18 -65q19 -28 45 -40q28 -13 62 -14h2q32 0 59 13q27 12 45 39.5t18 66.5q0 42 -23 69t-60 38q-20 3 -40 3q-26 0 -46 -5q-35 -10 -58 -38q-22 -26 -22 -67zM299 439q31 7 50 28.5t19 57.5q0 27 -13.5 46t-34.5 28t-45 9q-1 0 -14.5 -0.5t-34.5 -9.5t-35 -28.5 t-14 -45.5q0 -36 19.5 -58.5t49.5 -27.5q6 -1 22 -1q15 0 31 2z" />
<glyph unicode="9" horiz-adv-x="515" d="M152 501q0 -44 23 -68.5t41 -26.5t25 -2q26 0 54 10.5t45 33.5q17 24 21 61q-1 31 -16 53.5t-37 31.5t-46 9q-3 0 -18.5 -1t-38.5 -12t-38 -34.5t-15 -54.5zM54.5 625.5q35.5 55.5 90.5 80.5q54 24 115 24t114 -24q54 -25 88 -81q34 -53 34 -125v-5q-6 -95 -61 -240 q-54 -144 -136 -266l-6 -9l-179 1l94 123q20 27 52 82q31 52 50 100q-32 -10 -72 -10q-56 0 -104 23q-49 23 -82 74.5t-33 121.5q0 75 35.5 130.5z" />
<glyph unicode=":" horiz-adv-x="161" d="M27 464q25 20 39.5 20.5t15.5 0.5q28 0 52.5 -19.5t24.5 -55.5t-25 -57t-53.5 -21t-53.5 20t-25 57q0 35 25 55zM25 132q24 21 39 21.5t16 0.5q29 0 53 -20.5t24 -56.5q0 -38 -24 -60t-54 -22t-54 21.5t-24 58.5q0 36 24 57z" />
<glyph unicode=";" horiz-adv-x="154" d="M21.5 469.5q24.5 20.5 53.5 20.5t53.5 -19t24.5 -55t-24.5 -57t-53.5 -21t-53.5 20.5t-24.5 55.5t24.5 55.5zM27 148q23 20 52 20q1 1 2 1q28 0 51 -21q24 -22 24 -60q0 -23 -10 -46q-10 -21 -19 -34q-10 -12 -31 -28l-23 -17q-4 -3 -23 -13q-5 -3 -10 -3q-9 0 -15 9 q-10 14 2 26q3 3 7 12q6 10 11 21q4 8 6 14q-15 3 -29 14q-16 15 -19 36q-1 5 -1 10v2v1q0 34 25 56z" />
<glyph unicode="&#x3c;" horiz-adv-x="618" d="M555 628v-144l-227 -114l222 -119l-1 -148l-400 210l-109 63l93 44z" />
<glyph unicode="=" horiz-adv-x="665" d="M94 309l482 -1l-2 -128l-482 1zM90 547l482 -1l2 -128l-482 1z" />
<glyph unicode="&#x3e;" horiz-adv-x="618" d="M485 420l93 -44l-109 -63l-400 -210l-1 148l222 119l-227 114v144z" />
<glyph unicode="?" horiz-adv-x="548" d="M203 644q-18 -8 -28 -20l-25 -28l-18 -19l-64 104l10 11q35 40 79 58.5t104 18.5q97 0 155.5 -55t58.5 -146q0 -47 -20 -85.5t-63 -82.5l-41 -44q-34 -36 -39.5 -53t-5.5 -66v-1l-4 -35l-136 -7l2 54q0 63 17.5 99.5t58.5 77.5l43 46l12 12q13 12 20.5 22t13 18t8 16 t2.5 14v2v2q-1 54 -26.5 74.5t-68.5 20.5q-27 0 -45 -8zM182 117q24 21 39 21.5t16 0.5q29 0 53 -20.5t24 -56.5q0 -38 -24 -60t-54 -22t-54 21.5t-24 58.5q0 36 24 57z" />
<glyph unicode="@" horiz-adv-x="905" d="M657 44q-19 -10 -51 -23q-34 -13 -75 -18q-40 -5 -93 -5q-68 0 -128.5 21.5t-102.5 57.5q-41 36 -71 81q-30 46 -44 95q-14 48 -14 97q0 146 89 253q48 58 131 92q83 35 166 35q76 0 147 -22q73 -23 117 -61q58 -50 86 -124q27 -71 27 -152q0 -61 -14 -98 q-16 -39 -60 -78q-37 -33 -90 -41q-8 -1 -15 -2l65 -66l-21 -13q-31 -19 -49 -29zM516 545v10h115l-7 -89q-4 -49 -5 -63v-30v-25q1 -32 6 -66q5 -14 29 -18q6 -1 11 -1q20 0 33 13q22 22 27 34.5t5 56.5v2v1q0 117 -74 187q-31 29 -82 44q-55 17 -109 17q-63 0 -125 -25 q-60 -24 -90 -63q-55 -72 -55 -180q0 -36 17 -77q16 -42 47 -79q30 -37 78 -62q47 -25 101 -26h21q24 0 44 1q28 3 46 8t34 11q15 7 26 14l19 12q-23 3 -45 11q-33 12 -52 36q-34 -18 -74 -21q-9 -1 -18 -1q-40 0 -76 14q-46 19 -77 64.5t-32 107.5v5q0 45 16 82 q16 40 45 64q28 23 62 35q31 11 63 11q5 0 9 -1q37 -1 67 -14zM367 366q0 -27 13 -48q13 -20 32 -27t39 -7h4q20 1 37 13.5t23 33.5q1 5 1 26v11q-1 27 -2 37q-7 23 -23 36.5t-35 14.5h-2q-21 0 -41 -9q-19 -8 -33 -29q-13 -22 -13 -52z" />
<glyph unicode="A" horiz-adv-x="674" d="M388 647l296 -666h-139l-86 182h-249l-81 -182h-138l290 683l47 118zM404 286l-73 175l-69 -175h142z" />
<glyph unicode="B" horiz-adv-x="517" d="M24 708h226l3 -2q46 0 84 -19q40 -19 64 -51q23 -31 32 -71q6 -24 6 -47q0 -15 -3 -29q-6 -38 -30 -71q-11 -14 -24 -25q24 -9 44 -26q37 -34 53 -82q13 -37 13 -79q0 -11 -1 -21q-3 -53 -27 -99q-24 -47 -75 -77q-47 -28 -110 -28h-7l-10 -1h-189v1l-49 -1v728zM151 596 v-169h91q28 4 46 22q18 17 21 40q1 9 1 17q0 17 -4 34q-6 22 -27 38t-52 17l-19 1h-57zM208 596v20l20 -20h-20zM151 314v-199h133q31 1 50 19q20 19 23 47q1 10 1 20q0 22 -5 43q-7 28 -29 49q-22 19 -52 20l-19 1h-102zM253 314v20l20 -20h-20z" />
<glyph unicode="C" horiz-adv-x="694" d="M587 689q24 -11 36 -19q10 -7 32 -26l17 -15l-104 -92l-13 17q-10 13 -51 27q-44 14 -76 15h-9q-70 0 -137 -41q-71 -45 -105 -116q-25 -54 -25 -106q0 -41 15 -81q35 -91 131 -136q48 -22 99 -23h6q49 0 93 16q46 17 90 49l15 11l85 -95l-15 -14q-46 -42 -111 -66 q-64 -24 -125 -27q-19 -2 -37 -2q-40 0 -76 6q-55 8 -91 26q-146 76 -195 212q-20 56 -20 114q0 83 41 170q52 111 154 173q94 56 201 56h19q93 -3 156 -33z" />
<glyph unicode="D" horiz-adv-x="611" d="M179 712q10 0 26.5 -0.5t49.5 -0.5q61 -1 114 -18.5t88 -46.5t57 -56t35 -55q35 -74 38.5 -125t3.5 -69q0 -62 -19 -128t-74 -127.5t-135 -88.5q-21 -7 -75 -17h-1h-2q-16 0 -45 -0.5t-46 -0.5t-56 1h-119v731h125q13 1 35 1zM435 469q-23 58 -71.5 92t-117.5 34 q-5 0 -30.5 0.5t-37.5 0.5q-14 0 -27 -1l3 -492q25 0 39.5 -0.5t19.5 -0.5q27 0 61.5 4.5t66.5 17.5q45 19 72.5 64t33 89t5.5 77q0 18 -2.5 51.5t-14.5 63.5z" />
<glyph unicode="E" horiz-adv-x="483" d="M34 713h406v-125h-274v-156h196v-123h-196v-207h283v-122h-415v733z" />
<glyph unicode="F" horiz-adv-x="469" d="M38 711h393v-122h-260v-157h195v-123h-195v-329h-133v731z" />
<glyph unicode="G" horiz-adv-x="704" d="M692 116q0 -27 -26 -41q-47 -43 -110 -67q-64 -24 -125 -28q-24 -2 -47 -2q-36 0 -68 4q-56 8 -91 26q-95 50 -149.5 127.5t-62.5 159.5q-2 19 -2 38q0 62 20 125q26 82 80 145q55 64 137 102q77 35 162 35h15q92 -3 157 -34q24 -11 35 -19q10 -7 32 -26l17 -15l-105 -94 l-13 19q-9 13 -50 26q-45 14 -76 16h-9q-70 0 -137 -42q-72 -45 -105 -116q-25 -55 -25 -108q0 -41 15 -81q35 -93 132 -139q44 -21 94 -22h5q47 0 89 15q41 14 80 40l3 110h-137l1 114l265 1z" />
<glyph unicode="H" horiz-adv-x="630" d="M461 714h131v-734h-131v311l-290 1v-312h-133v730h132l1 -93v-203h290v300z" />
<glyph unicode="I" d="M38 716h130l1 -735h-130z" />
<glyph unicode="J" horiz-adv-x="396" d="M140 64h6q29 0 53 15q26 16 44 54q17 38 17 89v6l-7 492h131l9 -498v-11q0 -67 -23 -122q-25 -60 -67 -94q-42 -33 -91 -48q-33 -9 -66 -9q-19 0 -38 3q-52 8 -96 35l-16 10l60 116l19 -14q31 -22 65 -24z" />
<glyph unicode="K" horiz-adv-x="636" d="M405 706h166l-295 -343l357 -385h-170l-301 329v-329h-133v728h133v-290z" />
<glyph unicode="L" horiz-adv-x="474" d="M162 105h283v-123h-416v729l133 -1v-605z" />
<glyph unicode="M" horiz-adv-x="734" d="M369 364l302 412l39 -800h-126l-28 426l-187 -245l-191 249l-28 -427h-126l39 801z" />
<glyph unicode="N" horiz-adv-x="646" d="M165 415v-432h-127v769l445 -495l-3 459h128v-796z" />
<glyph unicode="O" horiz-adv-x="752" d="M354 607q-53 0 -95.5 -21.5t-67.5 -55.5q-26 -36 -40 -82q-13 -43 -13 -88v-6q1 -47 17 -94q16 -46 44 -82q27 -34 71.5 -55.5t99.5 -21.5q57 0 104 22q46 21 75 56q29 36 45 82t17 95v2q0 47 -17 91q-17 46 -47 82q-29 34 -79 56q-48 20 -108 20h-6zM529.5 694.5 q75.5 -32.5 122 -86t71.5 -120t25 -135.5l-1 -36q0 -37 -25 -103.5t-71 -119.5t-120 -85t-163 -32q-87 0 -158.5 32.5t-115 85.5t-66.5 120t-23 137t22.5 137t65.5 120t113 85.5t155 32.5q93 0 168.5 -32.5z" />
<glyph unicode="P" horiz-adv-x="506" d="M259 712h4q65 0 115.5 -31t73 -78t22.5 -102q0 -1 -0.5 -29.5t-24.5 -76.5t-75.5 -79.5t-120.5 -31.5h-4l-85 -1v-300l-132 -2v732zM164 590v-185h88q26 0 45 13t28.5 33.5t10.5 34.5t1 17q0 21 -7.5 40t-26 32.5t-45.5 13.5z" />
<glyph unicode="Q" horiz-adv-x="763" d="M360 607q-53 0 -95.5 -21.5t-67.5 -55.5q-27 -36 -40 -82q-13 -43 -13 -87v-7q1 -47 17 -94q16 -46 44 -82q27 -34 71.5 -55.5t98.5 -21.5q58 0 104 21.5t75 56.5q29 36 45.5 82t16.5 94.5t-16.5 94t-46.5 81.5q-29 34 -79 56q-49 20 -108 20h-6zM535.5 694.5 q75.5 -32.5 122 -86t71 -120.5t24.5 -137.5t-25.5 -137t-71 -119.5t-119.5 -85t-164 -32q-87 0 -158.5 32.5t-114.5 85.5t-66.5 120t-23.5 137t23 137t66 120t113 85.5t155 32.5q93 0 168.5 -32.5zM587 212l150 -166l-106 -88l-134 154l-81 91l104 85z" />
<glyph unicode="R" horiz-adv-x="489" d="M256 721h5q54 0 98 -21.5t70 -58t34 -72t8 -61.5q0 -18 -5 -48.5t-28 -67t-52 -58.5l170 -353h-146l-150 312h-14l-85 -1l4 -311h-133l-3 739zM161 598v-184h89q25 0 44 13.5t29 33.5t10.5 33.5t0.5 15.5q0 22 -7.5 41.5t-26 33t-45.5 13.5h-94z" />
<glyph unicode="S" horiz-adv-x="528" d="M357 715q40 -10 79 -40l15 -12l-69 -100l-17 14q-36 30 -92 30q-12 0 -23 -1q-29 -3 -48 -22t-21 -32.5t-2 -15.5q0 -20 19 -45t67 -42l81 -28q30 -11 58.5 -29.5t53.5 -47t39.5 -62t14.5 -74.5q0 -3 -0.5 -27t-21.5 -69q-63 -137 -239 -137q-33 0 -70 5q-40 8 -68 16.5 t-40 14t-46 23.5l-13 7l25 137l23 -11q79 -36 134 -51q32 -8 61 -8t58.5 14.5t46.5 40.5q14 21 14 44q0 16 -12.5 44t-58.5 42q-60 26 -79 32q-68 21 -111 58t-57 75.5t-14 71.5q0 13 4 42.5t29.5 67.5t72.5 61.5t105 23.5q62 0 102 -10z" />
<glyph unicode="T" horiz-adv-x="490" d="M-4 706h498v-120l-182 -1l-4 -605h-132v21l3 584l-183 1v120z" />
<glyph unicode="U" horiz-adv-x="592" d="M167 266q0 -39 11 -70t29 -49.5t40.5 -28.5t46 -10t45.5 10q23 11 42 29q18 19 29 50q12 33 13 73l1 47l1 -1l-1 386h131l4 -437v-6q0 -65 -21 -118q-23 -56 -61 -90q-37 -34 -86 -52q-45 -17 -92 -17h-6q-50 1 -97.5 20t-84.5 53q-37 35 -58 90q-19 50 -19 108v11 l-2 439l133 2z" />
<glyph unicode="V" horiz-adv-x="675" d="M427 437l119 276h138l-355 -801l-48 119l-289 682h137l118 -276l85 -206z" />
<glyph unicode="W" horiz-adv-x="865" d="M437 318l-169 -395l-269 789h130l147 -430l124 286l34 82l34 -83l123 -283l146 429l129 -1l-268 -788z" />
<glyph unicode="X" horiz-adv-x="695" d="M79 104l189 286l-118 168l-114 160h170l96 -137l47 -69l53 81l83 123l154 1l-80 -121h1l-132 -201l200 -299v-1l75 -116l-152 1l-62 93l-142 201l-126 -192l-62 -102h-169z" />
<glyph unicode="Y" horiz-adv-x="604" d="M-21 712h154l171 -258l167 258h154l-251 -384v-344l-146 -5l7 347z" />
<glyph unicode="Z" horiz-adv-x="795" d="M149 702h569l-76 -121l-309 -468h362v-131l-614 -2l23 32l23 32q24 31 42 60l310 473h-330v125z" />
<glyph unicode="[" horiz-adv-x="348" d="M42 -20v744l114 -2h148l-1 -133h-127v-477h130l-1 -132h-263z" />
<glyph unicode="\" horiz-adv-x="492" d="M312 -20l-282 745l143 -3l289 -742h-150z" />
<glyph unicode="]" horiz-adv-x="344" d="M304 -20h-263l-1 132h130v477h-127l-1 133h148l114 2v-744z" />
<glyph unicode="^" horiz-adv-x="605" d="M486 510h-136l-43 64l-48 -64l-142 -1l193 260z" />
<glyph unicode="_" horiz-adv-x="559" d="M531 20v-122h-503v122h503z" />
<glyph unicode="`" horiz-adv-x="1000" d="M460 1015l169 -178l-77 -72l-182 144z" />
<glyph unicode="a" horiz-adv-x="509" d="M34 316q20 49 56 79q35 30 78 45q38 13 77 13q7 0 14 -1q45 -2 86 -21l5 -2v18h133l-1 -467h-131v17q-28 -13 -59 -20q-23 -4 -46 -4q-26 0 -51 5q-48 11 -88 38q-41 27 -67 77q-26 51 -27 114v5q0 56 21 104zM139 210q0 -39 18 -68q18 -28 45 -37q28 -11 58 -11h2 q28 1 51.5 19.5t32.5 48.5q2 10 2 35v15q-1 37 -3 50q-7 28 -25 45q-18 18 -40 24q-13 3 -27 3q-11 0 -22 -2q-25 -5 -45 -20q-20 -14 -33.5 -41t-13.5 -61z" />
<glyph unicode="b" horiz-adv-x="511" d="M467 93q-26 -50 -67 -77q-40 -27 -88 -38q-25 -5 -51 -5q-23 0 -46 4q-31 7 -59 20v-17h-131l-1 788h133v-343q16 9 31 14q33 11 69 11q2 1 4 1q33 0 65 -9q35 -8 66 -28.5t53 -49.5q23 -28 36 -69q13 -42 13 -88q-1 -63 -27 -114zM359 211q0 39 -18 68t-43 40 q-27 11 -55 11h-2q-27 -1 -49 -19q-24 -19 -31 -50q-2 -6 -3 -49v-14q0 -24 2 -33q9 -30 31 -48q23 -17 50 -18h2q29 0 55 11q26 9 43 36q18 27 18 65z" />
<glyph unicode="c" horiz-adv-x="421" d="M383 422l19 -11l1 -2l2 -2l15 -11l-76 -119l-17 25q-1 1 -2 1q-6 5 -19 10q-21 9 -33 10q-6 1 -13 1q-29 0 -55 -12q-31 -14 -47 -45q-18 -32 -18 -59q0 -11 3 -22q9 -38 50 -62q23 -13 51 -14h11q33 0 62 15q14 7 15 8l18 16l65 -113l-12 -11q-50 -45 -150 -45h-1h-3 q-79 0 -123 27q-89 53 -114 141q-8 29 -8 59q0 60 34 120q37 66 105 99q55 25 114 25q15 0 28 -1q58 -6 98 -28z" />
<glyph unicode="d" horiz-adv-x="515" d="M23 213q0 51 16 95q18 46 48 75q29 29 68 47q39 20 81 21q7 1 14 1q33 0 65 -6q21 -4 44 -13v335h133l-1 -788h-129l-1 17q-3 -2 -6 -3q-40 -18 -86 -20q-7 -1 -14 -1q-39 0 -74 12q-43 14 -78 41q-36 28 -58 76q-21 46 -22 105v6zM157 211q0 -38 18 -65t44 -36 q26 -11 55 -11h2q27 1 50 18q23 18 31 48q2 7 2 37v11q-1 35 -3 48q-9 32 -31.5 50t-48.5 19h-2q-28 0 -55 -12q-26 -10 -44 -39t-18 -68z" />
<glyph unicode="e" horiz-adv-x="500" d="M379 2q-34 -16 -79 -21q-19 -2 -42 -2q-32 0 -55 4q-60 12 -104.5 48t-64 82.5t-19.5 97.5q0 2 0.5 29t21 74.5t65 84.5t102.5 49q27 5 60 5q31 0 54 -4q66 -13 107 -58t49 -86.5t8 -70t-5 -58.5l-3 -16l-313 -1q9 -17 27.5 -31t75.5 -20q10 -1 13 -1q5 0 14.5 1t32 9 t38.5 23l1 1l11 11l98 -59v-19l-4 -5q-31 -40 -89 -67zM350 272q-14 64 -87 64q-48 0 -71.5 -22t-31.5 -43z" />
<glyph unicode="f" horiz-adv-x="359" d="M61 326h-50v116h54q3 52 18 97.5t42.5 72t56.5 38.5t59 12q20 0 35 -4t27.5 -9.5t19.5 -7.5l27 -6l-73 -114l-29 15q-24 -1 -35.5 -20.5t-13.5 -73.5h103v-118h-106l1 -344h-136v346z" />
<glyph unicode="g" horiz-adv-x="476" d="M138 224q0 -33 17 -58.5t42.5 -36.5t51.5 -11t46 17t28 46q0 11 0.5 29t0.5 27v7v5v2q0 28 -13 45.5t-30.5 24t-36.5 6.5q-5 0 -20.5 -1.5t-36.5 -12.5t-35 -34.5t-14 -54.5zM368 -180q-54 -37 -126 -38q-3 -1 -7 -1q-66 0 -120 29l-37 20q-9 5 -20 15l-12 10l52 103 l76 -39q20 -10 45 -12h11q19 0 38 5q22 7 41 24q16 15 23 37l-1 27v18q-12 -7 -27 -12q-33 -11 -68 -11h-7q-38 1 -76 16q-38 16 -69 41q-31 27 -51 69q-19 44 -20 93v5q0 49 18 95q19 47 52 76q32 29 72 45q38 16 79 16h6q44 -1 85 -20l4 -2l-1 18h135l-2 -441 q-1 -119 -93 -186z" />
<glyph unicode="h" horiz-adv-x="487" d="M457 229v-157q0 -10 -1 -29v-44v-20h-134v20q0 32 1 64v69v103q0 34 -12 56q-12 21 -29 28q-15 7 -32 7h-7q-22 -2 -40 -13t-31 -31q-12 -21 -12 -47v-256h-130l-1 782l133 8v-343q15 9 30 14q36 12 72 12q98 0 146 -63q47 -60 47 -160z" />
<glyph unicode="i" d="M54 596q23 19 36.5 19.5t14.5 0.5q26 0 48.5 -18t22.5 -52t-22.5 -54t-49.5 -20t-50 19.5t-23 53.5q0 32 23 51zM39 453h132v-475h-130z" />
<glyph unicode="j" d="M54 596q23 19 36.5 19.5t14.5 0.5q26 0 48.5 -18t22.5 -52t-22.5 -54t-49.5 -20t-50 19.5t-23 53.5q0 32 23 51zM39 450h132l-1 -572h-131v572z" />
<glyph unicode="k" horiz-adv-x="490" d="M162 286l159 159l174 -1l-216 -217l246 -247l-174 -1l-189 189v-188h-133l1 788h133z" />
<glyph unicode="l" horiz-adv-x="210" d="M171 238v-258h-133v822h134z" />
<glyph unicode="m" horiz-adv-x="746" d="M320 442q26 -10 52 -34q2 -1 5 -3q1 -1 3 -1h2l1 -1l7 5q3 2 5.5 4t5.5 3.5t3 2.5q23 15 54 25q22 7 30 7q4 1 8 1q3 0 8.5 -0.5t8.5 -0.5q96 -1 145 -65q48 -62 48 -162v-153q0 -9 -1 -26v-43v-20l-135 -1v80q0 29 1 63v102q0 33 -11 57q-11 22 -26.5 31.5t-33.5 9.5 t-33 -9t-26 -29t-11 -49q0 -6 -1 -236v-20h-127v84q0 31 1 67v102q0 34 -12 57q-11 23 -26 31.5t-33 8.5h-2q-19 -1 -35 -10q-15 -9 -26.5 -28.5t-11.5 -46.5v-265h-130l-1 469h133v-18q12 6 36 14q28 8 59 8q39 0 66 -11z" />
<glyph unicode="n" horiz-adv-x="426" d="M424 230l-1 -250h-134v86q0 32 1 69v104q0 34 -12 57q-11 21 -26 29q-14 8 -29 8h-5q-19 -2 -36 -12q-16 -9 -27 -30q-11 -20 -11 -47l2 -264h-130l-1 469h133v-20l17 9q23 11 83 11q97 0 138 -60q38 -57 38 -159z" />
<glyph unicode="o" horiz-adv-x="499" d="M248 342q-37 0 -64 -18t-39.5 -44t-13 -42t-0.5 -17q0 -31 12 -56.5t38.5 -43t63.5 -17.5q57 0 90 36q22 25 26.5 49.5t4.5 37.5q0 21 -8 46t-37.5 47t-72.5 22zM383.5 419q56.5 -35 82 -87t25.5 -112q0 -1 -0.5 -32.5t-27 -84.5t-84 -88t-134.5 -35q-78 0 -135.5 35 t-82.5 87t-25 111q0 2 0.5 34t27.5 84.5t84.5 87.5t134.5 35q78 0 134.5 -35z" />
<glyph unicode="p" horiz-adv-x="507" d="M462 93q-26 -50 -68 -77q-40 -27 -88 -38q-25 -5 -51 -5q-23 0 -46 4q-31 6 -58 19l-1 -217h-130l-1 668h133v-17q27 13 58 19q23 4 45 4q27 0 54 -7q48 -11 89 -40q42 -29 67 -82q23 -50 23 -112v-5q-1 -64 -26 -114zM354 211q0 39 -18 68t-44 39q-27 12 -55 12h-2 q-26 -1 -48.5 -19t-31.5 -50q-2 -13 -3 -48v-11q0 -30 2 -37q8 -30 31 -48q23 -17 50 -18h2q29 0 55 11q26 9 44 36t18 65z" />
<glyph unicode="q" horiz-adv-x="497" d="M14 214q0 44 13 82q13 42 37 71t55.5 49.5t67.5 28.5q31 7 63 7h8q37 -1 71 -14q11 -4 21 -9v18h133l-1 -668h-130l-1 217q-27 -13 -58 -19q-23 -4 -46 -4q-26 0 -51 5q-48 11 -88 38q-42 27 -68 77q-25 50 -26 114v7zM148 211q0 -38 18 -65t44 -36q26 -11 55 -11h2 q27 1 50 18q23 18 31 48q2 7 2 37v11q-1 35 -3 48q-9 32 -31.5 50t-48.5 19h-2q-28 0 -55 -12q-26 -10 -44 -39t-18 -68z" />
<glyph unicode="r" horiz-adv-x="343" d="M326 445l18 -8l-50 -115l-16 3q-10 3 -21 3q-14 0 -30 -4q-27 -6 -43 -24q-16 -16 -29 -46q-12 -27 -12 -50l-1 -224h-130l-1 469h133v-31q26 23 56 33q30 9 61 9q33 0 65 -15z" />
<glyph unicode="s" horiz-adv-x="416" d="M20 79l96 84l13 -17q29 -36 79 -42q8 -1 14 -1q16 0 26 5q11 6 15 12q2 2 2 4q1 2 1 4v1q0 3 -1 6l-2 4q-7 10 -27 16l-94 28q-45 19 -65 57q-19 35 -19 74q0 21 8 44t27 45q19 24 57 38q36 14 84 14q92 0 138 -47l12 -12l-74 -98l-16 19q-19 22 -49 26q-5 1 -9 1 q-6 0 -13 -1q-11 -2 -21 -10q-7 -5 -7 -15q0 -21 32 -32l47 -9h1q56 -18 87 -52q32 -35 33 -75q1 -4 1 -8q0 -32 -11 -61q-13 -33 -37 -56q-29 -28 -66 -38q-34 -9 -79 -10h-4q-37 0 -91 22q-59 24 -81 66z" />
<glyph unicode="t" horiz-adv-x="243" d="M187 442h48v-124h-49v-340h-135v342h-43v122h46v92h133v-92z" />
<glyph unicode="u" horiz-adv-x="472" d="M22 308v48v93h134v-259q0 -34 11 -54q10 -18 23 -23q9 -3 18 -3q7 0 15 2q19 4 36 17.5t29 36.5t12 50l-1 233h131l1 -469h-132l-2 38q-13 -15 -24 -20q-36 -18 -75 -18q-98 0 -139 60q-38 57 -38 159q0 70 1 109z" />
<glyph unicode="v" horiz-adv-x="467" d="M469 449l-239 -536l-230 534l139 1l93 -218l102 220z" />
<glyph unicode="w" horiz-adv-x="585" d="M393 227l81 223l134 -1l-193 -530l-105 204l-112 -202l-195 526l139 1l83 -225l87 162z" />
<glyph unicode="x" horiz-adv-x="492" d="M83 104l88 130l-60 90l-89 123l170 1l58 -96l64 96h154l-100 -151l-41 -62l169 -256l-154 1l-93 138l-23 -36l-62 -102h-170z" />
<glyph unicode="y" horiz-adv-x="462" d="M161 76l-173 371l140 1l106 -222l115 224l135 -1l-325 -669h-153z" />
<glyph unicode="z" horiz-adv-x="446" d="M38 326v118h410l-74 -112l-148 -226h211v-126h-446l236 347z" />
<glyph unicode="{" horiz-adv-x="268" d="M240 -8l8 -6v-154l-29 14q-82 40 -136 117q-54 76 -63 183q0 1 1 12q0 8 1 19v8q0 8 -1 18q-1 15 -3 29q-2 13 -7 27q-4 13 -10 22q-5 7 -14 13q-7 4 -17 4v40q19 0 29 18q14 24 17 53q3 32 3 63q0 28 1 33q8 104 62 177q54 74 139 111l28 13v-144l-8 -6 q-76 -54 -87 -152v-6v-12q0 -7 -1 -12q0 -31 -3 -65q-3 -38 -22 -71q-6 -10 -13 -17q8 -7 14 -17q8 -13 14.5 -31t8.5 -36q2 -16 3 -33t1 -30v-21v-1q-1 -5 -1 -7q7 -93 85 -153zM135 144z" />
<glyph unicode="|" d="M171 238l-2 -258h-133v737h134z" />
<glyph unicode="}" horiz-adv-x="268" d="M44 153q-1 10 -1 22t1 29t3 33q2 17 8 35q6 19 15 32q6 10 14 17q-7 7 -13 17q-20 33 -22 71q-3 34 -3 65q-1 5 -1 12v12v6q-11 98 -87 152l-8 6v144l28 -13q85 -37 139 -111q55 -74 62 -179q1 -10 1 -31q1 -38 3 -63q3 -29 17 -53q10 -18 29 -18v-40q-10 0 -17 -4 q-9 -6 -14 -13q-6 -9 -11 -22q-4 -14 -6 -27q-2 -14 -3 -29q-1 -10 -1 -18v-8q1 -11 1 -19q1 -11 1 -12q-9 -107 -63 -183q-54 -77 -136 -117l-29 -14v154l8 6q78 60 85 153v8zM64 144z" />
<glyph unicode="~" horiz-adv-x="496" d="M389 601q7 -18 7 -35q0 -9 -3 -19q-6 -29 -31 -44q-21 -14 -46 -19q-8 -1 -16 -1q-18 0 -36 8q-27 12 -40 39l-8 18l75 38l9 -18q2 -4 5 -5h1q3 0 5 3v-1v2l-19 18l97 44v-28zM135 497q-7 18 -7 35q0 9 3 19q6 29 31 44q21 14 46 19q8 1 16 1q18 0 36 -8q27 -12 40 -39 l8 -18l-75 -38l-9 18q-2 4 -5 5h-1q-3 0 -5 -3v-1h1l18 -18l-97 -44v28zM219 535z" />
<glyph unicode="&#xa1;" horiz-adv-x="238" d="M54 -19l-6 481h131l5 -481h-130zM58 692.5q24 21.5 54 21.5t54 -22t24 -60q0 -36 -24 -56.5t-53 -20.5q-1 0 -16 0.5t-39 21.5t-24 57q0 37 24 58.5z" />
<glyph unicode="&#xa5;" horiz-adv-x="604" d="M28 220h541l-2 -128h-541zM25 400h541l2 -128h-541zM-21 712h154l171 -258l167 258h154l-251 -384v-344l-146 -5l7 347z" />
<glyph unicode="&#xa6;" d="M43 335h124l3 -355h-127v355zM44 716h124l-1 -349h-124z" />
<glyph unicode="&#xa8;" horiz-adv-x="713" d="M164 862.5q24 21.5 53.5 21.5t54 -20.5t24.5 -56.5q0 -38 -24 -60t-54 -22t-54 21.5t-24 58.5q0 36 24 57.5zM412 857.5q24 21.5 53.5 21.5t54 -20.5t24.5 -56.5q0 -38 -24 -60t-54 -22t-54 21.5t-24 58.5q0 36 24 57.5z" />
<glyph unicode="&#xaa;" horiz-adv-x="509" d="M34 316q20 49 56 79q35 30 78 45q38 13 77 13q7 0 14 -1q45 -2 86 -21l5 -2v18h133l-1 -467h-131v17q-28 -13 -59 -20q-23 -4 -46 -4q-26 0 -51 5q-48 11 -88 38q-41 27 -67 77q-26 51 -27 114v5q0 56 21 104zM139 210q0 -39 18 -68q18 -28 45 -37q28 -11 58 -11h2 q28 1 51.5 19.5t32.5 48.5q2 10 2 35v15q-1 37 -3 50q-7 28 -25 45q-18 18 -40 24q-13 3 -27 3q-11 0 -22 -2q-25 -5 -45 -20q-20 -14 -33.5 -41t-13.5 -61z" />
<glyph unicode="&#xab;" horiz-adv-x="605" d="M464 466v-136l-64 -43l64 -48l1 -141l-258 192zM257 468v-134l-64 -45l64 -47l1 -142l-260 193z" />
<glyph unicode="&#xad;" horiz-adv-x="470" d="M458 197h-429v130l429 1v-131z" />
<glyph unicode="&#xb0;" horiz-adv-x="560" d="M281 808h-1l-2 -1q-2 -1 -2 -5t1 -5h1h1q0 -1 1 -1h1q1 0 2.5 1t1.5 6q0 3 -2 4h-1q0 1 -1 1zM281 808zM280 796zM277 797h1h-1zM278 797zM217.5 864.5q27.5 21.5 57.5 21.5q3 0 21 -1.5t46 -24.5t28 -61q0 -40 -28 -64t-45.5 -24.5t-19.5 -0.5q-32 0 -59.5 24t-27.5 67 q0 42 27.5 63.5z" />
<glyph unicode="&#xb1;" horiz-adv-x="495" d="M462 107h-428v130l428 1v-131zM313 453l1 -155h-131v155l-141 -1v130l143 -1l-3 146h130v-144l137 1v-130z" />
<glyph unicode="&#xb2;" horiz-adv-x="402" d="M287 735q18 27 18 49q0 3 -2 14t-23 16h-6q-9 0 -21 -5t-16 -17l-8 -25l-76 49l8 16q30 64 109 64h5q59 -1 87 -31t28 -72q0 -8 -3.5 -37.5t-41.5 -82.5l-62 -83l117 1v-86h-290z" />
<glyph unicode="&#xb3;" horiz-adv-x="382" d="M284 767q4 9 4 17q0 7 -3 14q-6 12 -23 15q-6 2 -13 2q-9 0 -20 -2.5t-17 -13.5l-10 -18l-74 46l13 18q35 49 112 49h3h3q38 0 67 -19t39 -42t10 -44q0 -11 -3.5 -29.5t-19.5 -40.5q26 -31 31 -55.5t5 -38.5q0 -26 -14 -54t-48 -50t-77 -22h-3h-4q-55 0 -109 28l-22 12 l54 64l14 -6q17 -7 30 -10.5t16 -3.5h26q25 0 36 16t11 30q0 7 -3.5 20t-24.5 21l-61 1l-3 78l61 1q2 1 4 1l4 2q5 5 9 14z" />
<glyph unicode="&#xb4;" horiz-adv-x="1000" d="M425 1015l90 -106l-182 -144l-77 72z" />
<glyph unicode="&#xb9;" horiz-adv-x="284" d="M243 589h1v-79h-89v59l-1 182l-54 49l83 77l58 63l2 -108v-243z" />
<glyph unicode="&#xba;" horiz-adv-x="499" d="M248 342q-37 0 -64 -18t-39.5 -44t-13 -42t-0.5 -17q0 -31 12 -56.5t38.5 -43t63.5 -17.5q57 0 90 36q22 25 26.5 49.5t4.5 37.5q0 21 -8 46t-37.5 47t-72.5 22zM383.5 419q56.5 -35 82 -87t25.5 -112q0 -1 -0.5 -32.5t-27 -84.5t-84 -88t-134.5 -35q-78 0 -135.5 35 t-82.5 87t-25 111q0 2 0.5 34t27.5 84.5t84.5 87.5t134.5 35q78 0 134.5 -35z" />
<glyph unicode="&#xbb;" horiz-adv-x="605" d="M14 466l257 -176l-258 -192l1 141l64 48l-64 43v136zM221 468l259 -175l-260 -193l1 142l64 47l-64 45v134z" />
<glyph unicode="&#xbf;" horiz-adv-x="548" d="M345 104.5q18 7.5 28 20t25 29.5l18 19l64 -104l-10 -11q-35 -40 -79 -59t-104 -19q-97 0 -155.5 55.5t-58.5 146.5q0 46 20 85t63 83l41 44q34 36 39.5 53t5.5 66v1l4 35l136 7l-2 -54q0 -63 -17.5 -99.5t-58.5 -77.5l-42 -45q-9 -10 -17.5 -18t-16 -17.5t-13 -18 t-8 -16t-2.5 -13.5v-4q1 -48 23.5 -72t71.5 -24q27 0 45 7.5zM366 633q-24 -21 -39 -21.5t-16 -0.5q-29 0 -53 20.5t-24 56.5q0 38 24 60t54 22t54 -21.5t24 -58.5q0 -36 -24 -57z" />
<glyph unicode="&#xc0;" horiz-adv-x="695" d="M270 991l169 -178l-77 -72l-182 144zM388 647l296 -666h-139l-86 182h-249l-81 -182h-138l290 683l47 118zM404 286l-73 175l-69 -175h142z" />
<glyph unicode="&#xc1;" horiz-adv-x="695" d="M372 991l90 -106l-182 -144l-77 72zM388 647l296 -666h-139l-86 182h-249l-81 -182h-138l290 683l47 118zM404 286l-73 175l-69 -175h142z" />
<glyph unicode="&#xc2;" horiz-adv-x="674" d="M513 772h-136l-43 64l-48 -64l-142 -1l193 260zM388 647l296 -666h-139l-86 182h-249l-81 -182h-138l290 683l47 118zM404 286l-73 175l-69 -175h142z" />
<glyph unicode="&#xc3;" horiz-adv-x="674" d="M456 893q7 -18 7 -35q0 -9 -3 -19q-6 -29 -31 -44q-21 -14 -46 -19q-8 -1 -16 -1q-18 0 -36 8q-27 12 -40 39l-8 18l75 38l9 -18q2 -4 5 -5h1q3 0 5 3v-1v2l-19 18l97 44v-28zM202 789q-7 18 -7 35q0 9 3 19q6 29 31 44q21 14 46 19q8 1 16 1q18 0 36 -8q27 -12 40 -39 l8 -18l-75 -38l-9 18q-2 4 -5 5h-1q-3 0 -5 -3v-1h1l18 -18l-97 -44v28zM286 827zM388 647l296 -666h-139l-86 182h-249l-81 -182h-138l290 683l47 118zM404 286l-73 175l-69 -175h142z" />
<glyph unicode="&#xc4;" horiz-adv-x="695" d="M388 647l296 -666h-139l-86 182h-249l-81 -182h-138l290 683l47 118zM404 286l-73 175l-69 -175h142zM164 862.5q24 21.5 53.5 21.5t54 -20.5t24.5 -56.5q0 -38 -24 -60t-54 -22t-54 21.5t-24 58.5q0 36 24 57.5zM412 857.5q24 21.5 53.5 21.5t54 -20.5t24.5 -56.5 q0 -38 -24 -60t-54 -22t-54 21.5t-24 58.5q0 36 24 57.5z" />
<glyph unicode="&#xc5;" horiz-adv-x="695" d="M330 808h-1l-2 -1q-2 -1 -2 -5t1 -5h1h1q0 -1 1 -1h1q1 0 2.5 1t1.5 6q0 3 -2 4h-1q0 1 -1 1zM330 808zM329 796zM326 797h1h-1zM327 797zM266.5 864.5q27.5 21.5 57.5 21.5q3 0 21 -1.5t46 -24.5t28 -61q0 -40 -28 -64t-45.5 -24.5t-19.5 -0.5q-32 0 -59.5 24t-27.5 67 q0 42 27.5 63.5zM388 647l296 -666h-139l-86 182h-249l-81 -182h-138l290 683l47 118zM404 286l-73 175l-69 -175h142z" />
<glyph unicode="&#xc8;" horiz-adv-x="518" d="M196 991l169 -178l-77 -72l-182 144zM34 713h406v-125h-274v-156h196v-123h-196v-207h283v-122h-415v733z" />
<glyph unicode="&#xc9;" horiz-adv-x="518" d="M296 991l90 -106l-182 -144l-77 72zM34 713h406v-125h-274v-156h196v-123h-196v-207h283v-122h-415v733z" />
<glyph unicode="&#xca;" horiz-adv-x="483" d="M421 748h-136l-43 64l-48 -64l-142 -1l193 260zM34 713h406v-125h-274v-156h196v-123h-196v-207h283v-122h-415v733z" />
<glyph unicode="&#xcb;" horiz-adv-x="483" d="M59 889.5q24 21.5 53.5 21.5t54 -20.5t24.5 -56.5q0 -38 -24 -60t-54 -22t-54 21.5t-24 58.5q0 36 24 57.5zM307 884.5q24 21.5 53.5 21.5t54 -20.5t24.5 -56.5q0 -38 -24 -60t-54 -22t-54 21.5t-24 58.5q0 36 24 57.5zM34 713h406v-125h-274v-156h196v-123h-196v-207 h283v-122h-415v733z" />
<glyph unicode="&#xcc;" d="M17 991l169 -178l-77 -72l-182 144zM38 716h130l1 -735h-130z" />
<glyph unicode="&#xcd;" d="M191 991l90 -106l-182 -144l-77 72zM38 716h130l1 -735h-130z" />
<glyph unicode="&#xce;" d="M286 748h-136l-43 64l-48 -64l-142 -1l193 260zM38 716h130l1 -735h-130z" />
<glyph unicode="&#xcf;" d="M62 889.5q24 21.5 53.5 21.5t54 -20.5t24.5 -56.5q0 -38 -24 -60t-54 -22t-54 21.5t-24 58.5q0 36 24 57.5zM310 884.5q24 21.5 53.5 21.5t54 -20.5t24.5 -56.5q0 -38 -24 -60t-54 -22t-54 21.5t-24 58.5q0 36 24 57.5zM175 716h130l1 -735h-130z" />
<glyph unicode="&#xd1;" horiz-adv-x="646" d="M165 944q7 -18 7 -35q0 -9 -3 -19q-6 -29 -31 -44q-21 -14 -46 -19q-8 -1 -16 -1q-18 0 -36 8q-27 12 -40 39l-8 18l75 38l9 -18q2 -4 5 -5h1q3 0 5 3v-1v2l-19 18l97 44v-28zM-89 840q-7 18 -7 35q0 9 3 19q6 29 31 44q21 14 46 19q8 1 16 1q18 0 36 -8q27 -12 40 -39 l8 -18l-75 -38l-9 18q-2 4 -5 5h-1q-3 0 -5 -3v-1h1l18 -18l-97 -44v28zM-5 878zM165 415v-432h-127v769l445 -495l-3 459h128v-796z" />
<glyph unicode="&#xd2;" horiz-adv-x="752" d="M270 991l169 -178l-77 -72l-182 144zM354 607q-53 0 -95.5 -21.5t-67.5 -55.5q-26 -36 -40 -82q-13 -43 -13 -88v-6q1 -47 17 -94q16 -46 44 -82q27 -34 71.5 -55.5t99.5 -21.5q57 0 104 22q46 21 75 56q29 36 45 82t17 95v2q0 47 -17 91q-17 46 -47 82q-29 34 -79 56 q-48 20 -108 20h-6zM529.5 694.5q75.5 -32.5 122 -86t71.5 -120t25 -135.5l-1 -36q0 -37 -25 -103.5t-71 -119.5t-120 -85t-163 -32q-87 0 -158.5 32.5t-115 85.5t-66.5 120t-23 137t22.5 137t65.5 120t113 85.5t155 32.5q93 0 168.5 -32.5z" />
<glyph unicode="&#xd3;" horiz-adv-x="752" d="M452 991l90 -106l-182 -144l-77 72zM354 607q-53 0 -95.5 -21.5t-67.5 -55.5q-26 -36 -40 -82q-13 -43 -13 -88v-6q1 -47 17 -94q16 -46 44 -82q27 -34 71.5 -55.5t99.5 -21.5q57 0 104 22q46 21 75 56q29 36 45 82t17 95v2q0 47 -17 91q-17 46 -47 82q-29 34 -79 56 q-48 20 -108 20h-6zM529.5 694.5q75.5 -32.5 122 -86t71.5 -120t25 -135.5l-1 -36q0 -37 -25 -103.5t-71 -119.5t-120 -85t-163 -32q-87 0 -158.5 32.5t-115 85.5t-66.5 120t-23 137t22.5 137t65.5 120t113 85.5t155 32.5q93 0 168.5 -32.5z" />
<glyph unicode="&#xd4;" horiz-adv-x="752" d="M545 748h-136l-43 64l-48 -64l-142 -1l193 260zM354 607q-53 0 -95.5 -21.5t-67.5 -55.5q-26 -36 -40 -82q-13 -43 -13 -88v-6q1 -47 17 -94q16 -46 44 -82q27 -34 71.5 -55.5t99.5 -21.5q57 0 104 22q46 21 75 56q29 36 45 82t17 95v2q0 47 -17 91q-17 46 -47 82 q-29 34 -79 56q-48 20 -108 20h-6zM529.5 694.5q75.5 -32.5 122 -86t71.5 -120t25 -135.5l-1 -36q0 -37 -25 -103.5t-71 -119.5t-120 -85t-163 -32q-87 0 -158.5 32.5t-115 85.5t-66.5 120t-23 137t22.5 137t65.5 120t113 85.5t155 32.5q93 0 168.5 -32.5z" />
<glyph unicode="&#xd5;" horiz-adv-x="752" d="M488 869q7 -18 7 -35q0 -9 -3 -19q-6 -29 -31 -44q-21 -14 -46 -19q-8 -1 -16 -1q-18 0 -36 8q-27 12 -40 39l-8 18l75 38l9 -18q2 -4 5 -5h1q3 0 5 3v-1v2l-19 18l97 44v-28zM234 765q-7 18 -7 35q0 9 3 19q6 29 31 44q21 14 46 19q8 1 16 1q18 0 36 -8q27 -12 40 -39 l8 -18l-75 -38l-9 18q-2 4 -5 5h-1q-3 0 -5 -3v-1h1l18 -18l-97 -44v28zM318 803zM354 607q-53 0 -95.5 -21.5t-67.5 -55.5q-26 -36 -40 -82q-13 -43 -13 -88v-6q1 -47 17 -94q16 -46 44 -82q27 -34 71.5 -55.5t99.5 -21.5q57 0 104 22q46 21 75 56q29 36 45 82t17 95v2 q0 47 -17 91q-17 46 -47 82q-29 34 -79 56q-48 20 -108 20h-6zM529.5 694.5q75.5 -32.5 122 -86t71.5 -120t25 -135.5l-1 -36q0 -37 -25 -103.5t-71 -119.5t-120 -85t-163 -32q-87 0 -158.5 32.5t-115 85.5t-66.5 120t-23 137t22.5 137t65.5 120t113 85.5t155 32.5 q93 0 168.5 -32.5z" />
<glyph unicode="&#xd6;" horiz-adv-x="812" d="M398 -3zM354 607q-53 0 -95.5 -21.5t-67.5 -55.5q-26 -36 -40 -82q-13 -43 -13 -88v-6q1 -47 17 -94q16 -46 44 -82q27 -34 71.5 -55.5t99.5 -21.5q57 0 104 22q46 21 75 56q29 36 45 82t17 95v2q0 47 -17 91q-17 46 -47 82q-29 34 -79 56q-48 20 -108 20h-6z M529.5 694.5q75.5 -32.5 122 -86t71.5 -120t25 -135.5l-1 -36q0 -37 -25 -103.5t-71 -119.5t-120 -85t-163 -32q-87 0 -158.5 32.5t-115 85.5t-66.5 120t-23 137t22.5 137t65.5 120t113 85.5t155 32.5q93 0 168.5 -32.5zM190 862.5q24 21.5 53.5 21.5t54 -20.5t24.5 -56.5 q0 -38 -24 -60t-54 -22t-54 21.5t-24 58.5q0 36 24 57.5zM438 857.5q24 21.5 53.5 21.5t54 -20.5t24.5 -56.5q0 -38 -24 -60t-54 -22t-54 21.5t-24 58.5q0 36 24 57.5z" />
<glyph unicode="&#xd7;" horiz-adv-x="495" d="M337 360l110 -109l-92 -92l-110 109l-98 -100l-92 92l100 101l-105 100l93 92l102 -102l96 98l92 -92z" />
<glyph unicode="&#xd9;" horiz-adv-x="592" d="M167 266q0 -39 11 -70t29 -49.5t40.5 -28.5t46 -10t45.5 10q23 11 42 29q18 19 29 50q12 33 13 73l1 47l1 -1l-1 386h131l4 -437v-6q0 -65 -21 -118q-23 -56 -61 -90q-37 -34 -86 -52q-45 -17 -92 -17h-6q-50 1 -97.5 20t-84.5 53q-37 35 -58 90q-19 50 -19 108v11 l-2 439l133 2zM209 991l169 -178l-77 -72l-182 144z" />
<glyph unicode="&#xda;" horiz-adv-x="592" d="M167 266q0 -39 11 -70t29 -49.5t40.5 -28.5t46 -10t45.5 10q23 11 42 29q18 19 29 50q12 33 13 73l1 47l1 -1l-1 386h131l4 -437v-6q0 -65 -21 -118q-23 -56 -61 -90q-37 -34 -86 -52q-45 -17 -92 -17h-6q-50 1 -97.5 20t-84.5 53q-37 35 -58 90q-19 50 -19 108v11 l-2 439l133 2zM396 991l90 -106l-182 -144l-77 72z" />
<glyph unicode="&#xdb;" horiz-adv-x="592" d="M167 266q0 -39 11 -70t29 -49.5t40.5 -28.5t46 -10t45.5 10q23 11 42 29q18 19 29 50q12 33 13 73l1 47l1 -1l-1 386h131l4 -437v-6q0 -65 -21 -118q-23 -56 -61 -90q-37 -34 -86 -52q-45 -17 -92 -17h-6q-50 1 -97.5 20t-84.5 53q-37 35 -58 90q-19 50 -19 108v11 l-2 439l133 2zM481 748h-136l-43 64l-48 -64l-142 -1l193 260z" />
<glyph unicode="&#xdc;" horiz-adv-x="592" d="M167 266q0 -39 11 -70t29 -49.5t40.5 -28.5t46 -10t45.5 10q23 11 42 29q18 19 29 50q12 33 13 73l1 47l1 -1l-1 386h131l4 -437v-6q0 -65 -21 -118q-23 -56 -61 -90q-37 -34 -86 -52q-45 -17 -92 -17h-6q-50 1 -97.5 20t-84.5 53q-37 35 -58 90q-19 50 -19 108v11 l-2 439l133 2zM124 862.5q24 21.5 53.5 21.5t54 -20.5t24.5 -56.5q0 -38 -24 -60t-54 -22t-54 21.5t-24 58.5q0 36 24 57.5zM372 857.5q24 21.5 53.5 21.5t54 -20.5t24.5 -56.5q0 -38 -24 -60t-54 -22t-54 21.5t-24 58.5q0 36 24 57.5z" />
<glyph unicode="&#xdd;" horiz-adv-x="604" d="M394 1037l90 -106l-182 -144l-77 72zM-21 712h154l171 -258l167 258h154l-251 -384v-344l-146 -5l7 347z" />
<glyph unicode="&#xdf;" horiz-adv-x="517" d="M262 -20h-189v1l-49 -1v728h226l3 -2q46 0 84 -19q40 -19 64 -51q23 -31 32 -71q6 -24 6 -47q0 -15 -3 -29q-6 -38 -30 -71q-11 -14 -24 -25q24 -9 44 -26q37 -34 53 -82q13 -37 13 -79q0 -11 -1 -21q-3 -53 -27 -99q-24 -47 -75 -77q-47 -28 -110 -28h-7zM208 596h-57 v-172h18q13 0 41 1q5 1 12 1t12 0.5t7 0.5q28 4 47 22q18 17 21 40q1 9 1 17q0 17 -4 34q-6 22 -27 38t-52 17zM151 314l-1 -199h134q31 0 50 18q20 19 23 47q1 10 1 20q0 22 -5 43q-7 28 -30 49q-21 20 -51 21l-19 1h-84h-18z" />
<glyph unicode="&#xe0;" horiz-adv-x="509" d="M203 716l169 -178l-77 -72l-182 144zM34 316q20 49 56 79q35 30 78 45q38 13 77 13q7 0 14 -1q45 -2 86 -21l5 -2v18h133l-1 -467h-131v17q-28 -13 -59 -20q-23 -4 -46 -4q-26 0 -51 5q-48 11 -88 38q-41 27 -67 77q-26 51 -27 114v5q0 56 21 104zM139 210q0 -39 18 -68 q18 -28 45 -37q28 -11 58 -11h2q28 1 51.5 19.5t32.5 48.5q2 10 2 35v15q-1 37 -3 50q-7 28 -25 45q-18 18 -40 24q-13 3 -27 3q-11 0 -22 -2q-25 -5 -45 -20q-20 -14 -33.5 -41t-13.5 -61z" />
<glyph unicode="&#xe1;" horiz-adv-x="509" d="M337 718l90 -106l-182 -144l-77 72zM34 316q20 49 56 79q35 30 78 45q38 13 77 13q7 0 14 -1q45 -2 86 -21l5 -2v18h133l-1 -467h-131v17q-28 -13 -59 -20q-23 -4 -46 -4q-26 0 -51 5q-48 11 -88 38q-41 27 -67 77q-26 51 -27 114v5q0 56 21 104zM139 210q0 -39 18 -68 q18 -28 45 -37q28 -11 58 -11h2q28 1 51.5 19.5t32.5 48.5q2 10 2 35v15q-1 37 -3 50q-7 28 -25 45q-18 18 -40 24q-13 3 -27 3q-11 0 -22 -2q-25 -5 -45 -20q-20 -14 -33.5 -41t-13.5 -61z" />
<glyph unicode="&#xe2;" horiz-adv-x="509" d="M430 475h-136l-43 64l-48 -64l-142 -1l193 260zM34 316q20 49 56 79q35 30 78 45q38 13 77 13q7 0 14 -1q45 -2 86 -21l5 -2v18h133l-1 -467h-131v17q-28 -13 -59 -20q-23 -4 -46 -4q-26 0 -51 5q-48 11 -88 38q-41 27 -67 77q-26 51 -27 114v5q0 56 21 104zM139 210 q0 -39 18 -68q18 -28 45 -37q28 -11 58 -11h2q28 1 51.5 19.5t32.5 48.5q2 10 2 35v15q-1 37 -3 50q-7 28 -25 45q-18 18 -40 24q-13 3 -27 3q-11 0 -22 -2q-25 -5 -45 -20q-20 -14 -33.5 -41t-13.5 -61z" />
<glyph unicode="&#xe3;" horiz-adv-x="509" d="M373 596q7 -18 7 -35q0 -9 -3 -19q-6 -29 -31 -44q-21 -14 -46 -19q-8 -1 -16 -1q-18 0 -36 8q-27 12 -40 39l-8 18l75 38l9 -18q2 -4 5 -5h1q3 0 5 3v-1v2l-19 18l97 44v-28zM119 492q-7 18 -7 35q0 9 3 19q6 29 31 44q21 14 46 19q8 1 16 1q18 0 36 -8q27 -12 40 -39 l8 -18l-75 -38l-9 18q-2 4 -5 5h-1q-3 0 -5 -3v-1h1l18 -18l-97 -44v28zM203 530zM34 316q20 49 56 79q35 30 78 45q38 13 77 13q7 0 14 -1q45 -2 86 -21l5 -2v18h133l-1 -467h-131v17q-28 -13 -59 -20q-23 -4 -46 -4q-26 0 -51 5q-48 11 -88 38q-41 27 -67 77 q-26 51 -27 114v5q0 56 21 104zM139 210q0 -39 18 -68q18 -28 45 -37q28 -11 58 -11h2q28 1 51.5 19.5t32.5 48.5q2 10 2 35v15q-1 37 -3 50q-7 28 -25 45q-18 18 -40 24q-13 3 -27 3q-11 0 -22 -2q-25 -5 -45 -20q-20 -14 -33.5 -41t-13.5 -61z" />
<glyph unicode="&#xe4;" horiz-adv-x="496" d="M34 316q20 49 56 79q35 30 78 45q38 13 77 13q7 0 14 -1q45 -2 86 -21l5 -2v18h133l-1 -467h-131v17q-28 -13 -59 -20q-23 -4 -46 -4q-26 0 -51 5q-48 11 -88 38q-41 27 -67 77q-26 51 -27 114v5q0 56 21 104zM139 210q0 -39 18 -68q18 -28 45 -37q28 -11 58 -11h2 q28 1 51.5 19.5t32.5 48.5q2 10 2 35v15q-1 37 -3 50q-7 28 -25 45q-18 18 -40 24q-13 3 -27 3q-11 0 -22 -2q-25 -5 -45 -20q-20 -14 -33.5 -41t-13.5 -61zM85 630.5q24 21.5 53.5 21.5t54 -20.5t24.5 -56.5q0 -38 -24 -60t-54 -22t-54 21.5t-24 58.5q0 36 24 57.5z M333 625.5q24 21.5 53.5 21.5t54 -20.5t24.5 -56.5q0 -38 -24 -60t-54 -22t-54 21.5t-24 58.5q0 36 24 57.5z" />
<glyph unicode="&#xe5;" horiz-adv-x="496" d="M257 588h-1l-2 -1q-2 -1 -2 -5t1 -5h1h1q0 -1 1 -1h1q1 0 2.5 1t1.5 6q0 3 -2 4h-1q0 1 -1 1zM257 588zM256 576zM253 577h1h-1zM254 577zM193.5 644.5q27.5 21.5 57.5 21.5q3 0 21 -1.5t46 -24.5t28 -61q0 -40 -28 -64t-45.5 -24.5t-19.5 -0.5q-32 0 -59.5 24t-27.5 67 q0 42 27.5 63.5zM34 316q20 49 56 79q35 30 78 45q38 13 77 13q7 0 14 -1q45 -2 86 -21l5 -2v18h133l-1 -467h-131v17q-28 -13 -59 -20q-23 -4 -46 -4q-26 0 -51 5q-48 11 -88 38q-41 27 -67 77q-26 51 -27 114v5q0 56 21 104zM139 210q0 -39 18 -68q18 -28 45 -37 q28 -11 58 -11h2q28 1 51.5 19.5t32.5 48.5q2 10 2 35v15q-1 37 -3 50q-7 28 -25 45q-18 18 -40 24q-13 3 -27 3q-11 0 -22 -2q-25 -5 -45 -20q-20 -14 -33.5 -41t-13.5 -61z" />
<glyph unicode="&#xe8;" horiz-adv-x="470" d="M159 718l169 -178l-77 -72l-182 144zM379 2q-34 -16 -79 -21q-19 -2 -42 -2q-32 0 -55 4q-60 12 -104.5 48t-64 82.5t-19.5 97.5q0 2 0.5 29t21 74.5t65 84.5t102.5 49q27 5 60 5q31 0 54 -4q66 -13 107 -58t49 -86.5t8 -70t-5 -58.5l-3 -16l-313 -1q9 -17 27.5 -31 t75.5 -20q10 -1 13 -1q5 0 14.5 1t32 9t38.5 23l1 1l11 11l98 -59v-19l-4 -5q-31 -40 -89 -67zM350 272q-14 64 -87 64q-48 0 -71.5 -22t-31.5 -43z" />
<glyph unicode="&#xe9;" horiz-adv-x="470" d="M340 718l90 -106l-182 -144l-77 72zM379 2q-34 -16 -79 -21q-19 -2 -42 -2q-32 0 -55 4q-60 12 -104.5 48t-64 82.5t-19.5 97.5q0 2 0.5 29t21 74.5t65 84.5t102.5 49q27 5 60 5q31 0 54 -4q66 -13 107 -58t49 -86.5t8 -70t-5 -58.5l-3 -16l-313 -1q9 -17 27.5 -31 t75.5 -20q10 -1 13 -1q5 0 14.5 1t32 9t38.5 23l1 1l11 11l98 -59v-19l-4 -5q-31 -40 -89 -67zM350 272q-14 64 -87 64q-48 0 -71.5 -22t-31.5 -43z" />
<glyph unicode="&#xea;" horiz-adv-x="500" d="M448 475h-136l-43 64l-48 -64l-142 -1l193 260zM379 2q-34 -16 -79 -21q-19 -2 -42 -2q-32 0 -55 4q-60 12 -104.5 48t-64 82.5t-19.5 97.5q0 2 0.5 29t21 74.5t65 84.5t102.5 49q27 5 60 5q31 0 54 -4q66 -13 107 -58t49 -86.5t8 -70t-5 -58.5l-3 -16l-313 -1 q9 -17 27.5 -31t75.5 -20q10 -1 13 -1q5 0 14.5 1t32 9t38.5 23l1 1l11 11l98 -59v-19l-4 -5q-31 -40 -89 -67zM350 272q-14 64 -87 64q-48 0 -71.5 -22t-31.5 -43z" />
<glyph unicode="&#xeb;" horiz-adv-x="500" d="M87 616.5q24 21.5 53.5 21.5t54 -20.5t24.5 -56.5q0 -38 -24 -60t-54 -22t-54 21.5t-24 58.5q0 36 24 57.5zM335 611.5q24 21.5 53.5 21.5t54 -20.5t24.5 -56.5q0 -38 -24 -60t-54 -22t-54 21.5t-24 58.5q0 36 24 57.5zM379 2q-34 -16 -79 -21q-19 -2 -42 -2q-32 0 -55 4 q-60 12 -104.5 48t-64 82.5t-19.5 97.5q0 2 0.5 29t21 74.5t65 84.5t102.5 49q27 5 60 5q31 0 54 -4q66 -13 107 -58t49 -86.5t8 -70t-5 -58.5l-3 -16l-313 -1q9 -17 27.5 -31t75.5 -20q10 -1 13 -1q5 0 14.5 1t32 9t38.5 23l1 1l11 11l98 -59v-19l-4 -5q-31 -40 -89 -67z M350 272q-14 64 -87 64q-48 0 -71.5 -22t-31.5 -43z" />
<glyph unicode="&#xec;" d="M14 718l169 -178l-77 -72l-182 144zM39 453h132v-475h-130z" />
<glyph unicode="&#xed;" d="M196 718l90 -106l-182 -144l-77 72zM39 453h132v-475h-130z" />
<glyph unicode="&#xee;" d="M288 475h-136l-43 64l-48 -64l-142 -1l193 260zM39 453h132v-475h-130z" />
<glyph unicode="&#xef;" d="M63 616.5q24 21.5 53.5 21.5t54 -20.5t24.5 -56.5q0 -38 -24 -60t-54 -22t-54 21.5t-24 58.5q0 36 24 57.5zM311 611.5q24 21.5 53.5 21.5t54 -20.5t24.5 -56.5q0 -38 -24 -60t-54 -22t-54 21.5t-24 58.5q0 36 24 57.5zM175 453h132v-475h-130z" />
<glyph unicode="&#xf1;" horiz-adv-x="426" d="M347 646q7 -18 7 -35q0 -9 -3 -19q-6 -29 -31 -44q-21 -14 -46 -19q-8 -1 -16 -1q-18 0 -36 8q-27 12 -40 39l-8 18l75 38l9 -18q2 -4 5 -5h1q3 0 5 3v-1v2l-19 18l97 44v-28zM93 542q-7 18 -7 35q0 9 3 19q6 29 31 44q21 14 46 19q8 1 16 1q18 0 36 -8q27 -12 40 -39 l8 -18l-75 -38l-9 18q-2 4 -5 5h-1q-3 0 -5 -3v-1h1l18 -18l-97 -44v28zM177 580zM424 230l-1 -250h-134v86q0 32 1 69v104q0 34 -12 57q-11 21 -26 29q-14 8 -29 8h-5q-19 -2 -36 -12q-16 -9 -27 -30q-11 -20 -11 -47l2 -264h-130l-1 469h133v-20l17 9q23 11 83 11 q97 0 138 -60q38 -57 38 -159z" />
<glyph unicode="&#xf2;" horiz-adv-x="499" d="M159 718l169 -178l-77 -72l-182 144zM248 342q-37 0 -64 -18t-39.5 -44t-13 -42t-0.5 -17q0 -31 12 -56.5t38.5 -43t63.5 -17.5q57 0 90 36q22 25 26.5 49.5t4.5 37.5q0 21 -8 46t-37.5 47t-72.5 22zM383.5 419q56.5 -35 82 -87t25.5 -112q0 -1 -0.5 -32.5t-27 -84.5 t-84 -88t-134.5 -35q-78 0 -135.5 35t-82.5 87t-25 111q0 2 0.5 34t27.5 84.5t84.5 87.5t134.5 35q78 0 134.5 -35z" />
<glyph unicode="&#xf3;" horiz-adv-x="499" d="M340 718l90 -106l-182 -144l-77 72zM248 342q-37 0 -64 -18t-39.5 -44t-13 -42t-0.5 -17q0 -31 12 -56.5t38.5 -43t63.5 -17.5q57 0 90 36q22 25 26.5 49.5t4.5 37.5q0 21 -8 46t-37.5 47t-72.5 22zM383.5 419q56.5 -35 82 -87t25.5 -112q0 -1 -0.5 -32.5t-27 -84.5 t-84 -88t-134.5 -35q-78 0 -135.5 35t-82.5 87t-25 111q0 2 0.5 34t27.5 84.5t84.5 87.5t134.5 35q78 0 134.5 -35z" />
<glyph unicode="&#xf4;" horiz-adv-x="499" d="M433 475h-136l-43 64l-48 -64l-142 -1l193 260zM248 342q-37 0 -64 -18t-39.5 -44t-13 -42t-0.5 -17q0 -31 12 -56.5t38.5 -43t63.5 -17.5q57 0 90 36q22 25 26.5 49.5t4.5 37.5q0 21 -8 46t-37.5 47t-72.5 22zM383.5 419q56.5 -35 82 -87t25.5 -112q0 -1 -0.5 -32.5 t-27 -84.5t-84 -88t-134.5 -35q-78 0 -135.5 35t-82.5 87t-25 111q0 2 0.5 34t27.5 84.5t84.5 87.5t134.5 35q78 0 134.5 -35z" />
<glyph unicode="&#xf5;" horiz-adv-x="499" d="M373 596q7 -18 7 -35q0 -9 -3 -19q-6 -29 -31 -44q-21 -14 -46 -19q-8 -1 -16 -1q-18 0 -36 8q-27 12 -40 39l-8 18l75 38l9 -18q2 -4 5 -5h1q3 0 5 3v-1v2l-19 18l97 44v-28zM119 492q-7 18 -7 35q0 9 3 19q6 29 31 44q21 14 46 19q8 1 16 1q18 0 36 -8q27 -12 40 -39 l8 -18l-75 -38l-9 18q-2 4 -5 5h-1q-3 0 -5 -3v-1h1l18 -18l-97 -44v28zM203 530zM248 342q-37 0 -64 -18t-39.5 -44t-13 -42t-0.5 -17q0 -31 12 -56.5t38.5 -43t63.5 -17.5q57 0 90 36q22 25 26.5 49.5t4.5 37.5q0 21 -8 46t-37.5 47t-72.5 22zM383.5 419q56.5 -35 82 -87 t25.5 -112q0 -1 -0.5 -32.5t-27 -84.5t-84 -88t-134.5 -35q-78 0 -135.5 35t-82.5 87t-25 111q0 2 0.5 34t27.5 84.5t84.5 87.5t134.5 35q78 0 134.5 -35z" />
<glyph unicode="&#xf6;" horiz-adv-x="567" d="M248 342q-37 0 -64 -18t-39.5 -44t-13 -42t-0.5 -17q0 -31 12 -56.5t38.5 -43t63.5 -17.5q57 0 90 36q22 25 26.5 49.5t4.5 37.5q0 21 -8 46t-37.5 47t-72.5 22zM383.5 419q56.5 -35 82 -87t25.5 -112q0 -1 -0.5 -32.5t-27 -84.5t-84 -88t-134.5 -35q-78 0 -135.5 35 t-82.5 87t-25 111q0 2 0.5 34t27.5 84.5t84.5 87.5t134.5 35q78 0 134.5 -35zM78 631.5q24 21.5 53.5 21.5t54 -20.5t24.5 -56.5q0 -38 -24 -60t-54 -22t-54 21.5t-24 58.5q0 36 24 57.5zM326 626.5q24 21.5 53.5 21.5t54 -20.5t24.5 -56.5q0 -38 -24 -60t-54 -22t-54 21.5 t-24 58.5q0 36 24 57.5z" />
<glyph unicode="&#xf9;" horiz-adv-x="472" d="M22 308v48v93h134v-259q0 -34 11 -54q10 -18 23 -23q9 -3 18 -3q7 0 15 2q19 4 36 17.5t29 36.5t12 50l-1 233h131l1 -469h-132l-2 38q-13 -15 -24 -20q-36 -18 -75 -18q-98 0 -139 60q-38 57 -38 159q0 70 1 109zM136 718l169 -178l-77 -72l-182 144z" />
<glyph unicode="&#xfa;" horiz-adv-x="472" d="M22 308v48v93h134v-259q0 -34 11 -54q10 -18 23 -23q9 -3 18 -3q7 0 15 2q19 4 36 17.5t29 36.5t12 50l-1 233h131l1 -469h-132l-2 38q-13 -15 -24 -20q-36 -18 -75 -18q-98 0 -139 60q-38 57 -38 159q0 70 1 109zM321 718l90 -106l-182 -144l-77 72z" />
<glyph unicode="&#xfb;" horiz-adv-x="472" d="M22 308v48v93h134v-259q0 -34 11 -54q10 -18 23 -23q9 -3 18 -3q7 0 15 2q19 4 36 17.5t29 36.5t12 50l-1 233h131l1 -469h-132l-2 38q-13 -15 -24 -20q-36 -18 -75 -18q-98 0 -139 60q-38 57 -38 159q0 70 1 109zM412 475h-136l-43 64l-48 -64l-142 -1l193 260z" />
<glyph unicode="&#xfc;" horiz-adv-x="472" d="M47 619.5q24 21.5 53.5 21.5t54 -20.5t24.5 -56.5q0 -38 -24 -60t-54 -22t-54 21.5t-24 58.5q0 36 24 57.5zM295 614.5q24 21.5 53.5 21.5t54 -20.5t24.5 -56.5q0 -38 -24 -60t-54 -22t-54 21.5t-24 58.5q0 36 24 57.5zM22 308v48v93h134v-259q0 -34 11 -54 q10 -18 23 -23q9 -3 18 -3q7 0 15 2q19 4 36 17.5t29 36.5t12 50l-1 233h131l1 -469h-132l-2 38q-13 -15 -24 -20q-36 -18 -75 -18q-98 0 -139 60q-38 57 -38 159q0 70 1 109z" />
<glyph unicode="&#xfd;" horiz-adv-x="462" />
<glyph unicode="&#xff;" horiz-adv-x="462" d="M171 656.5q24 21.5 53.5 21.5t54 -20.5t24.5 -56.5q0 -38 -24 -60t-54 -22t-54 21.5t-24 58.5q0 36 24 57.5zM419 651.5q24 21.5 53.5 21.5t54 -20.5t24.5 -56.5q0 -38 -24 -60t-54 -22t-54 21.5t-24 58.5q0 36 24 57.5zM161 76l-173 371l140 1l106 -222l115 224l135 -1 l-325 -669h-153z" />
<glyph unicode="&#x131;" d="M39 453h132v-475h-130z" />
<glyph unicode="&#x152;" horiz-adv-x="1235" d="M786 713h406v-125h-274v-156h196v-123h-196v-207h283v-122h-415v733zM354 607q-53 0 -95.5 -21.5t-67.5 -55.5q-26 -36 -40 -82q-13 -43 -13 -88v-6q1 -47 17 -94q16 -46 44 -82q27 -34 71.5 -55.5t99.5 -21.5q57 0 104 22q46 21 75 56q29 36 45 82t17 95v2q0 47 -17 91 q-17 46 -47 82q-29 34 -79 56q-48 20 -108 20h-6zM529.5 694.5q75.5 -32.5 122 -86t71.5 -120t25 -135.5l-1 -36q0 -37 -25 -103.5t-71 -119.5t-120 -85t-163 -32q-87 0 -158.5 32.5t-115 85.5t-66.5 120t-23 137t22.5 137t65.5 120t113 85.5t155 32.5q93 0 168.5 -32.5z " />
<glyph unicode="&#x153;" horiz-adv-x="999" d="M878 2q-34 -16 -79 -21q-19 -2 -42 -2q-32 0 -55 4q-60 12 -104.5 48t-64 82.5t-19.5 97.5q0 2 0.5 29t21 74.5t65 84.5t102.5 49q27 5 60 5q31 0 54 -4q66 -13 107 -58t49 -86.5t8 -70t-5 -58.5l-3 -16l-313 -1q9 -17 27.5 -31t75.5 -20q10 -1 13 -1q5 0 14.5 1t32 9 t38.5 23l1 1l11 11l98 -59v-19l-4 -5q-31 -40 -89 -67zM849 272q-14 64 -87 64q-48 0 -71.5 -22t-31.5 -43zM248 342q-37 0 -64 -18t-39.5 -44t-13 -42t-0.5 -17q0 -31 12 -56.5t38.5 -43t63.5 -17.5q57 0 90 36q22 25 26.5 49.5t4.5 37.5q0 21 -8 46t-37.5 47t-72.5 22z M383.5 419q56.5 -35 82 -87t25.5 -112q0 -1 -0.5 -32.5t-27 -84.5t-84 -88t-134.5 -35q-78 0 -135.5 35t-82.5 87t-25 111q0 2 0.5 34t27.5 84.5t84.5 87.5t134.5 35q78 0 134.5 -35z" />
<glyph unicode="&#x178;" horiz-adv-x="604" d="M124 929.5q24 21.5 53.5 21.5t54 -20.5t24.5 -56.5q0 -38 -24 -60t-54 -22t-54 21.5t-24 58.5q0 36 24 57.5zM372 924.5q24 21.5 53.5 21.5t54 -20.5t24.5 -56.5q0 -38 -24 -60t-54 -22t-54 21.5t-24 58.5q0 36 24 57.5zM-21 712h154l171 -258l167 258h154l-251 -384 v-344l-146 -5l7 347z" />
<glyph unicode="&#x2c6;" horiz-adv-x="605" d="M486 510h-136l-43 64l-48 -64l-142 -1l193 260z" />
<glyph unicode="&#x2dc;" horiz-adv-x="351" d="M127 192q7 -18 7 -35q0 -9 -3 -19q-6 -29 -31 -44q-21 -14 -46 -19q-8 -1 -16 -1q-18 0 -36 8q-27 12 -40 39l-8 18l75 38l9 -18q2 -4 5 -5h1q3 0 5 3v-1v2l-19 18l97 44v-28zM-127 88q-7 18 -7 35q0 9 3 19q6 29 31 44q21 14 46 19q8 1 16 1q18 0 36 -8q27 -12 40 -39 l8 -18l-75 -38l-9 18q-2 4 -5 5h-1q-3 0 -5 -3v-1h1l18 -18l-97 -44v28zM-43 126z" />
<glyph unicode="&#x2000;" horiz-adv-x="518" />
<glyph unicode="&#x2001;" horiz-adv-x="1037" />
<glyph unicode="&#x2002;" horiz-adv-x="518" />
<glyph unicode="&#x2003;" horiz-adv-x="1037" />
<glyph unicode="&#x2004;" horiz-adv-x="345" />
<glyph unicode="&#x2005;" horiz-adv-x="259" />
<glyph unicode="&#x2006;" horiz-adv-x="172" />
<glyph unicode="&#x2007;" horiz-adv-x="172" />
<glyph unicode="&#x2008;" horiz-adv-x="129" />
<glyph unicode="&#x2009;" />
<glyph unicode="&#x200a;" horiz-adv-x="57" />
<glyph unicode="&#x2010;" horiz-adv-x="470" d="M458 197h-429v130l429 1v-131z" />
<glyph unicode="&#x2011;" horiz-adv-x="470" d="M458 197h-429v130l429 1v-131z" />
<glyph unicode="&#x2013;" horiz-adv-x="500" d="M29 197v131h459v-131h-459z" />
<glyph unicode="&#x2014;" horiz-adv-x="1000" d="M29 197v131h959v-131h-959z" />
<glyph unicode="&#x2018;" horiz-adv-x="187" d="M148 613q-1 -18 -9 -31q-3 -4 -6 -9q-17 -19 -39 -25q-7 -2 -14 -2q-19 0 -34 13q-7 6 -10 10q-13 17 -16 45v12q0 45 25 84q28 44 62 55l56 19l-34 -49q-7 -11 -8 -42v-4q0 -19 3 -26q2 -3 2 -4q20 -15 21 -37q0 -1 0.5 -4t0.5 -5z" />
<glyph unicode="&#x2019;" horiz-adv-x="187" d="M35 692q0 20 12 36q14 21 36 28q7 3 14 3h3q13 0 24 -5q5 -3 8 -6q7 -5 11 -9l3 -3q12 -16 16 -40q1 -9 1 -22q0 -39 -19 -74q-25 -47 -56 -60l-55 -24l30 52q4 8 4 30v12q-1 20 -5 28q-1 4 -2 4q-21 14 -24 37q-1 10 -1 13z" />
<glyph unicode="&#x201c;" horiz-adv-x="292" d="M270 617q0 -22 -14 -40q-17 -21 -40 -26q-7 -2 -13 -2q-15 1 -26 7q-6 3 -9 6q-7 6 -10 10l-3 4q-11 16 -13 40v9q0 47 25 87q28 44 62 55l59 20l-37 -51q-7 -10 -8 -40v-3q1 -20 4 -28q1 -2 1 -3q20 -16 22 -38v-7zM148 613q-1 -18 -9 -31q-3 -4 -6 -9q-17 -19 -39 -25 q-7 -2 -14 -2q-19 0 -34 13q-7 6 -10 10q-13 17 -16 45v12q0 45 25 84q28 44 62 55l56 19l-34 -49q-7 -11 -8 -42v-4q0 -19 3 -26q2 -3 2 -4q20 -15 21 -37q0 -1 0.5 -4t0.5 -5z" />
<glyph unicode="&#x201d;" horiz-adv-x="358" d="M170 694q0 10 2 15q0 2 1 4q3 9 13 24t25.5 20t23.5 5q12 -1 23 -6q6 -3 11 -6.5t8 -7.5q15 -16 20 -43q1 -9 1 -22q0 -40 -22 -80t-52 -55l-58 -27l32 55q4 8 4 30q0 7 -0.5 20t-4.5 22q-2 3 -3 3q-20 15 -23 37q-1 10 -1 12zM35 692q0 20 12 36q14 21 36 28q7 3 14 3h3 q13 0 24 -5q5 -3 8 -6q7 -5 11 -9l3 -3q12 -16 16 -40q1 -9 1 -22q0 -39 -19 -74q-25 -47 -56 -60l-55 -24l30 52q4 8 4 30v12q-1 20 -5 28q-1 4 -2 4q-21 14 -24 37q-1 10 -1 13z" />
<glyph unicode="&#x2026;" horiz-adv-x="570" d="M399 117q24 21 39 21.5t16 0.5q29 0 53 -20.5t24 -56.5q0 -38 -24 -60t-54 -22t-54 21.5t-24 58.5q0 36 24 57zM209 117q24 21 39 21.5t16 0.5q29 0 53 -20.5t24 -56.5q0 -38 -24 -60t-54 -22t-54 21.5t-24 58.5q0 36 24 57zM19 117q24 21 39 21.5t16 0.5q29 0 53 -20.5 t24 -56.5q0 -38 -24 -60t-54 -22t-54 21.5t-24 58.5q0 36 24 57z" />
<glyph unicode="&#x202f;" />
<glyph unicode="&#x2039;" horiz-adv-x="618" d="M555 628v-144l-227 -114l222 -119l-1 -148l-400 210l-109 63l93 44z" />
<glyph unicode="&#x203a;" horiz-adv-x="618" d="M485 420l93 -44l-109 -63l-400 -210l-1 148l222 119l-227 114v144z" />
<glyph unicode="&#x205f;" horiz-adv-x="259" />
<glyph unicode="&#x20ac;" horiz-adv-x="715" d="M598 313l-45 -122h-557l45 122h557zM651 475l-48 -120h-600l39 120h609zM703 649l-48 -143l-22 42q-7 14 -47 30q-34 14 -93 16h-9q-70 0 -137 -41q-71 -45 -105 -116q-25 -54 -25 -106q0 -41 15 -81q35 -91 131 -136q48 -22 99 -23h6q49 0 93 16q46 17 90 49l32 24v-148 l-7 -6q-48 -43 -84 -51q-32 -7 -92 -10q-19 -2 -37 -2q-40 0 -76 6q-55 8 -91 26q-146 76 -195 212q-20 56 -20 114q0 83 41 170q52 111 154 173q94 56 202 56h18q61 -2 134 -32q40 -16 61 -31z" />
<glyph unicode="&#x2122;" horiz-adv-x="1224" d="M859 364l302 412l39 -800h-126l-28 426l-187 -245l-191 249l-28 -427h-126l39 801zM-4 706h498v-120l-182 -1l-4 -605h-132v21l3 584l-183 1v120z" />
</font>
</defs>
</svg>
