<?xml version="1.0" standalone="no"?>
<!DOCTYPE svg PUBLIC "-//W3C//DTD SVG 1.1//EN" "http://www.w3.org/Graphics/SVG/1.1/DTD/svg11.dtd" >
<svg xmlns="http://www.w3.org/2000/svg">
<metadata>
This is a custom SVG webfont generated by Font Squirrel.
</metadata>
<defs>
<font id="webfontIkWQY5iy" horiz-adv-x="207" >
<font-face units-per-em="1000" ascent="800" descent="-200" />
<missing-glyph horiz-adv-x="351" />
<glyph unicode=" "  horiz-adv-x="351" />
<glyph unicode="&#x09;" horiz-adv-x="351" />
<glyph unicode="&#xa0;" horiz-adv-x="351" />
<glyph unicode="!" horiz-adv-x="238" d="M74 693h90l-5 -441h-91zM54 60q0 27 18 42.5t40 15.5l1 1q22 0 39 -15q18 -15 18 -42q0 -29 -18 -45.5t-40 -16.5t-40 16t-18 44z" />
<glyph unicode="&#x22;" horiz-adv-x="340" d="M248 558q-3 13 -26 69t-22 72q0 26 17.5 41t38.5 16h2q21 0 38 -16q18 -15 18 -44q-4 -24 -13 -47t-15.5 -34.5t-20.5 -31.5t-17 -25zM74 558q-3 13 -26 69t-22 72q0 26 17.5 41t38.5 16h2q21 0 38 -16q18 -15 18 -44q-4 -24 -13 -47t-15.5 -34.5t-20.5 -31.5t-17 -25z " />
<glyph unicode="#" horiz-adv-x="455" d="M105 620h77v-140h90v140h78v-140h58v-91h-58v-83h58v-87h-58v-149h-78v149h-90v-149h-77v149l-58 1v86h58v84h-58v91l58 -1v140zM182 390v-84h90v83z" />
<glyph unicode="$" horiz-adv-x="733" d="M344 28h-4q-35 1 -74.5 19.5t-59 33.5t-36.5 30l40 69q24 -23 40.5 -35.5t45 -24.5t60.5 -12q46 0 65 10q22 13 48 55q16 25 16 50q0 19 -9 37q-17 41 -67 61q-67 28 -71 29q-59 20 -90 47q-35 31 -48 67q-12 29 -12 59q0 7 1 14q3 38 22 69t54 52t80 24l-13 68h75 l-12 -68q67 -4 114 -42l-41 -62q-38 34 -92 34q-11 0 -24 -2q-32 -4 -53.5 -26t-24.5 -50q-1 -3 -1 -7q0 -24 19 -50q24 -33 69 -48l73 -25q28 -10 60 -34q28 -23 50.5 -57t25.5 -76v-8q0 -42 -19 -86q-42 -96 -147 -112l8 -61h-75z" />
<glyph unicode="%" horiz-adv-x="560" d="M107 473q0 -27 21 -39q10 -5 20.5 -5t21.5 5q20 12 20 40q0 20 -13 30.5t-28.5 10.5t-28.5 -11.5t-13 -30.5zM40 472q0 34 16 58t40 34q23 8 48 8h6q28 -1 52.5 -13t40.5 -36t16 -54q0 -32 -16 -57t-40.5 -36.5t-52.5 -11.5q-2 -1 -3 -1q-27 0 -51 11t-40 36.5t-16 61.5z M371 161q0 -27 21 -38q10 -5 20 -5q11 0 22 6q20 11 20 38q0 26 -20 36q-11 6 -21 6t-21 -6q-21 -11 -21 -37zM304 160q0 35 16.5 59t40.5 33q21 9 45 9q4 0 8 -1q28 -1 52.5 -13t41 -35.5t16.5 -54.5q0 -32 -16.5 -56.5t-41 -36.5t-52.5 -12q-2 -1 -3 -1q-27 0 -50 11 q-24 11 -40.5 36.5t-16.5 61.5zM462 559l57 -59l-433 -448l-57 59z" />
<glyph unicode="&#x26;" horiz-adv-x="754" d="M303 410l212 -222q34 70 34 140q0 9 -1 18h83q-3 -132 -56 -221l118 -125h-118l-55 57q-73 -67 -193 -79q-10 -1 -19 -1q-43 0 -86 15q-53 17 -96 59t-59 99q-6 34 -6 62.5t10 56.5t22.5 49.5t30.5 42t33.5 34.5t31.5 26q-21 41 -24 79q-1 8 -1 16q0 29 10 52 q12 29 27 48.5t32 33.5q35 27 91 32q13 2 27 2q40 0 76 -12q48 -17 63 -48l-55 -52q-22 32 -77 36h-11q-48 0 -76 -30q-24 -29 -24 -61q0 -50 56 -107zM236 355q-47 -39 -72 -88q-15 -30 -15 -59q0 -19 6 -38q13 -39 49.5 -67.5t73.5 -39.5q28 -9 50 -9q6 0 12 1 q72 7 125 61z" />
<glyph unicode="'" horiz-adv-x="154" d="M74 558q-54 81 -54 141q0 26 17.5 41.5t38.5 16.5h3q19 0 35 -14q18 -15 18 -44q0 -34 -19 -74t-39 -67z" />
<glyph unicode="(" horiz-adv-x="268" d="M40 148q-1 11 -1 178.5t1 175.5q7 99 58 168.5t131 104.5v-103q-83 -59 -95 -167q-1 -8 -1 -177t1 -180q14 -110 94 -172v-112q-78 38 -128.5 110t-59.5 174z" />
<glyph unicode=")" horiz-adv-x="295" d="M242 150q-10 -101 -60.5 -173.5t-128.5 -110.5v112q80 63 94 172q1 11 1 180t-1 177q-11 108 -94 168v103q80 -36 130.5 -105t58.5 -168v-176v-179z" />
<glyph unicode="*" horiz-adv-x="212" d="M174 678h-28q-12 0 0 -12l32 -32l-10 -17l-16 -12l-41 40l-4 2l-5 -2l-40 -40l-18 12l-9 17l34 32q5 4 2.5 8.5t-7.5 3.5h-27l-5 20l5 18l35 -1q3 0 8.5 6.5t5.5 11.5v22l20 4l20 -4v-22q0 -6 6 -11t10 -5l32 -1l6 -18z" />
<glyph unicode="+" horiz-adv-x="495" d="M431 316l-136 -1v-155h-90l-1 155l-140 -1v91l143 -2l-3 146h90v-144l137 1v-90z" />
<glyph unicode="," horiz-adv-x="154" d="M20 69q0 26 17.5 41t38.5 16h2q21 0 38 -16q18 -15 18 -44q0 -20 -9 -38.5t-17 -29.5t-26.5 -25t-22.5 -16t-20 -12q5 6 11 16.5t11.5 23t8.5 23t2 16.5t-8 4q-5 -1 -9 -1q-12 0 -22 9q-14 13 -13 33z" />
<glyph unicode="-" horiz-adv-x="470" d="M438 217h-389v90l389 1v-91z" />
<glyph unicode="." horiz-adv-x="190" d="M15 60q0 27 18 42.5t40 15.5l1 1q22 0 39 -15q18 -15 18 -42q0 -29 -18 -45.5t-40 -16.5t-40 16t-18 44z" />
<glyph unicode="/" horiz-adv-x="500" d="M170 0h-107l274 702l100 2z" />
<glyph unicode="0" horiz-adv-x="569" d="M123 367q0 -133 44 -196q45 -64 115 -69q5 -1 11 -1q62 0 103 54q49 65 49 205q0 142 -57 205q-32 35 -76 45q-15 3 -30 3q-28 0 -56 -13q-42 -19 -69 -65q-34 -58 -34 -168zM31 361q0 143 54 227q42 66 109 94q45 19 91 19q23 0 47 -5q69 -14 120 -67q86 -89 86 -271 v-15q0 -167 -65 -255q-46 -63 -116 -82q-30 -9 -61 -9l-79 15q-70 25 -118 89q-68 91 -68 260z" />
<glyph unicode="1" horiz-adv-x="392" d="M171 600h-114l-1 120h212l1 -115l1 -527h1v-78h-97l-1 78h-1z" />
<glyph unicode="2" horiz-adv-x="540" d="M36 0l304 396q44 67 44 122q0 10 -2 20q-10 62 -76 77q-11 2 -22 2q-26 0 -56 -12q-44 -18 -58 -59l-78 50q52 106 185 106h7q101 -2 151 -56q41 -43 41 -110q0 -15 -2 -31q-11 -88 -82 -186l-172 -229l274 1v-91l-358 -1v1h-100z" />
<glyph unicode="3" horiz-adv-x="510" d="M284 414q44 7 66 58q12 26 12 50t-11 46q-20 40 -74 52q-15 3 -31 3q-24 0 -48 -6q-43 -10 -63 -45l-76 48q60 82 194 82h10q65 -1 112.5 -32t66.5 -76q13 -30 13 -64q0 -18 -3 -37q-11 -55 -54 -102q42 -44 63 -93q20 -46 20 -88q0 -45 -19 -87q-18 -40 -50 -68.5 t-76 -45.5t-93 -17h-15q-101 0 -199 52l58 68q36 -17 66 -25t50 -8t44 1q43 0 75.5 21.5t45.5 54.5q11 31 11 63v5q-1 36 -24 66.5t-62 43.5h-91l-3 78z" />
<glyph unicode="4" horiz-adv-x="477" d="M319 243v268l-179 -268h179zM414 722v-478h46l-1 -85h-42v-159h-100v162h-193h-107v43l355 517h42z" />
<glyph unicode="5" horiz-adv-x="509" d="M111 700h292l2 -80h-201l-3 -198h28q53 0 87 -6q41 -8 83 -37q35 -23 55 -60.5t24 -78.5q1 -10 1 -20q0 -32 -10 -64q-13 -42 -40 -76t-74 -55t-106 -21h-14q-50 0 -102 18q-59 21 -103 51l48 62q51 -30 83.5 -41.5t83.5 -11.5q48 1 82.5 28t46.5 64q8 22 8 46 q0 14 -2 28q-8 39 -36 62q-49 38 -117 42l-117 -4z" />
<glyph unicode="6" horiz-adv-x="590" d="M48 256q-4 17 -6 52q-2 48 -2 75q0 36 12 83q12 49 36 94q34 64 96.5 103t131.5 39h6q82 0 123 -25l-37 -75q-9 9 -36 16q-16 4 -36 4q-15 0 -32 -2q-46 -5 -80.5 -30t-53.5 -62t-27.5 -76.5t-8.5 -81.5q2 -14 3 -17q37 41 80 61.5t77 23.5h16q26 0 53 -6 q36 -8 52.5 -15.5t31.5 -16.5q35 -20 59.5 -68.5t24.5 -107.5q0 -80 -42 -134q-69 -87 -184 -88q-128 0 -197 102q-17 24 -37.5 77t-22.5 75zM154 226q0 -44 22 -76t54 -46q31 -14 67 -14h3q37 1 69.5 16.5t54 48.5t21.5 78q0 49 -30 80.5t-75 44.5q-15 2 -27 2h-13 q-16 -3 -40 -10q-39 -12 -72.5 -51.5t-33.5 -72.5z" />
<glyph unicode="7" horiz-adv-x="481" d="M72 691l366 -1v-84l1 -3l-274 -603h-123l283 598h-253v93z" />
<glyph unicode="8" horiz-adv-x="555" d="M66 505q0 47 19 89.5t50 66.5q56 43 135 43l3 1q78 0 131 -39q34 -24 55.5 -68t21.5 -93q-3 -45 -60 -122q99 -66 99 -176q0 -86 -39 -136q-34 -43 -88 -65.5t-114 -22.5q-65 0 -121.5 26t-89.5 74t-33 123q0 105 95 173q-61 66 -64 126zM136 212q0 -44 21.5 -76.5 t53.5 -47t69 -14.5q2 -1 3 -1q36 0 67 15q33 14 54 46.5t21 77.5q0 49 -27.5 81.5t-71.5 44.5q-23 4 -44 4q-27 0 -51 -6q-42 -12 -68.5 -44t-26.5 -80zM303 419q38 9 61.5 36t23.5 70q0 33 -17 57t-43 35q-25 11 -53 11h-3q-29 -1 -54.5 -12t-43 -35t-17.5 -57 q0 -44 24 -71t62 -35q12 -1 25 -1q17 0 35 2z" />
<glyph unicode="9" horiz-adv-x="515" d="M132 501q0 -52 28 -82t65 -34q8 -1 16 -1q29 0 59 11q37 14 56 41q21 27 25 72q-1 38 -19.5 65.5t-46.5 38.5q-25 11 -53 11q-3 0 -7 -1q-32 -1 -59.5 -14t-45.5 -41.5t-18 -65.5zM39 495q0 69 32.5 119.5t82 73t106.5 22.5t105.5 -22.5t80 -73t30.5 -118.5 q-6 -92 -59.5 -234t-134.5 -262l-128 1l70 91q21 28 53.5 83.5t52.5 108.5q2 6 4.5 20.5t3.5 17.5q-39 -26 -100 -26q-51 0 -95 21t-74 67.5t-30 110.5z" />
<glyph unicode=":" horiz-adv-x="161" d="M22 409q0 25 18.5 40t39.5 15q1 1 2 1q21 0 38 -15q19 -14 19 -40q0 -27 -18.5 -42.5t-40 -15.5t-40 15t-18.5 42zM21 75q0 27 18 42.5t40 16.5h1q22 0 39 -15q18 -15 18 -42q0 -29 -18 -45.5t-40 -16.5t-40 16t-18 44z" />
<glyph unicode=";" horiz-adv-x="154" d="M17 414q0 26 18 41t40 15t40 -14t18 -40q0 -27 -18 -42.5t-40 -15.5t-40 15t-18 41zM22 92q0 25 18 40.5t40 15.5q0 1 1 1q21 0 37 -16q18 -16 18 -45q0 -19 -8.5 -38t-16.5 -29.5t-27 -24.5l-22 -16q-4 -3 -21 -12q5 5 11 16t11.5 23t9 22.5t2 16.5t-8.5 4q-4 -1 -8 -1 q-12 0 -22 9q-15 13 -14 34z" />
<glyph unicode="&#x3c;" horiz-adv-x="618" d="M535 596v-100l-251 -125l246 -132l-1 -103l-370 195l-76 43l59 28z" />
<glyph unicode="=" horiz-adv-x="665" d="M114 289l442 -1l-2 -88l-442 1zM110 527l442 -1l2 -88l-442 1z" />
<glyph unicode="&#x3e;" horiz-adv-x="618" d="M83 596l393 -194l59 -28l-76 -43l-370 -195l-1 103l246 132l-251 125v100z" />
<glyph unicode="?" horiz-adv-x="548" d="M248 672q-31 0 -53 -9.5t-33.5 -23t-26.5 -29.5l-42 69q32 36 72 53t96 17q89 0 141.5 -49.5t52.5 -131.5q0 -42 -18 -77t-59 -77l-42 -44q-37 -40 -43.5 -60.5t-6.5 -72.5l-2 -17l-97 -5l1 33q0 58 16 91t54 72l43 46l17 17q9 8 17 18.5t14.5 20t10.5 21.5t3 24 q-3 114 -115 114zM178 60q0 27 18 42.5t40 15.5l1 1q22 0 39 -15q18 -15 18 -42q0 -29 -18 -45.5t-40 -16.5t-40 16t-18 44z" />
<glyph unicode="@" horiz-adv-x="905" d="M695 90q-30 -19 -47.5 -28.5t-49 -21.5t-70 -17t-90.5 -5q-65 0 -122 20.5t-96 54t-67.5 76.5t-41.5 89t-13 92q0 139 84 240q45 54 124 87t158 33q73 0 141 -21t110 -57q54 -48 80 -116t26 -145q0 -57 -13 -90.5t-54 -70.5q-34 -29 -80 -36q-15 -2 -29 -2q-29 0 -55 10 q-38 14 -53 44q-36 -25 -81 -28q-9 -1 -17 -1q-36 0 -69 13q-40 16 -67.5 56.5t-28.5 96.5v5q0 41 14 74q15 36 40 56.5t56 31.5q27 10 56 10h8q34 -2 63 -15q18 -9 25 -21v31h73l-5 -68q-3 -40 -4 -63q-1 -13 -1 -31v-25q1 -35 6 -71q9 -27 46 -33q7 -1 14 -1q28 0 47 19 q25 25 31.5 41t6.5 67q0 126 -80 201q-33 32 -90.5 49.5t-114.5 17.5q-67 0 -132 -26t-99 -70q-59 -77 -59 -192q0 -40 18 -84.5t50.5 -84.5t84 -67t110.5 -28h21q25 0 46 2q30 2 49.5 7.5t36.5 12.5t29 15l26 17zM347 366q0 -33 16.5 -58.5t41.5 -35.5q23 -8 46 -8h5 q26 1 48 17.5t30 45.5q2 9 2 30v11q-1 31 -2 41q-9 30 -30.5 48t-47.5 19h-2q-25 0 -49 -10q-25 -11 -41.5 -37.5t-16.5 -62.5z" />
<glyph unicode="A" horiz-adv-x="674" d="M329 731l41 -92l283 -638h-95l-86 182h-275l-81 -182h-95l278 655zM434 266l-104 248l-97 -248h201z" />
<glyph unicode="B" horiz-adv-x="517" d="M44 688h200l3 -2h5q42 0 76 -16q36 -18 56.5 -46t29.5 -64q5 -21 5 -42q0 -13 -3 -26q-5 -33 -26.5 -62t-56.5 -44q-1 0 -1 -1.5t1 -1.5q46 -2 79.5 -31.5t47.5 -72.5q12 -35 12 -73v-20q-4 -49 -25.5 -91t-67.5 -69q-43 -25 -100 -25h-8l-10 -1h-168v1l-49 -1v688z M131 616v-209h112q36 5 59 27.5t27 51.5q1 10 1 20q0 20 -5 39q-8 29 -34 49t-63 21v1h-97zM131 334v-239h153q39 1 64 25t29 59q1 11 1 22q0 24 -6 47q-8 35 -35 59.5t-64 25.5v1h-142z" />
<glyph unicode="C" horiz-adv-x="694" d="M430 702q88 -3 149 -31q23 -11 32.5 -17.5t30.5 -24.5l-71 -63q-14 18 -61 33.5t-81 16.5h-10q-76 0 -147 -44q-77 -48 -113 -125q-27 -58 -27 -114q0 -45 16 -88q38 -99 142 -147q51 -24 107 -25h6q53 0 99 17q50 18 96 52l60 -67q-44 -40 -105 -62.5t-119 -26.5 q-18 -1 -36 -1q-38 0 -74 5q-51 8 -84 25q-139 72 -185 201q-19 52 -19 107q0 79 39 162q49 105 146 163q89 54 191 54h18z" />
<glyph unicode="D" horiz-adv-x="611" d="M145 691q13 1 34 1h23q37 -1 53 -1q58 -1 107.5 -17.5t82.5 -43.5t53 -52t33 -52q33 -71 39 -150q1 -17 1 -35q0 -59 -15 -113q-21 -71 -72.5 -128.5t-126.5 -83.5q-21 -7 -72 -16q-16 0 -45 -0.5t-46 -0.5t-56 1h-99v691h106zM454 476q-26 64 -79.5 101.5t-128.5 37.5 q-5 0 -43 1h-25q-24 0 -47 -1l3 -532q36 0 68 -1h11q28 0 63 4q40 6 73 20q50 20 80.5 70t38.5 106q4 37 4 72q0 19 -1 37q-4 52 -17 85z" />
<glyph unicode="E" horiz-adv-x="483" d="M54 693h366v-85h-274v-196h196v-83h-196v-247h283v-82h-375v693z" />
<glyph unicode="F" horiz-adv-x="469" d="M58 691h353v-82h-260v-197h195v-83h-195v-329h-93v691z" />
<glyph unicode="G" horiz-adv-x="704" d="M673 365l-1 -249q0 -16 -18 -25q-44 -41 -105 -64t-120 -27q-23 -2 -45 -2q-34 0 -66 4q-51 7 -84 24q-91 48 -142.5 121t-59.5 150q-1 18 -1 36q0 59 19 119q25 78 76.5 138.5t129.5 96.5q73 33 154 33h14q88 -3 149 -32q23 -11 32.5 -17.5t30.5 -24.5l-71 -64 q-13 19 -60.5 34t-81.5 17h-10q-75 0 -147 -45q-77 -48 -113 -125q-27 -59 -27 -116q0 -45 16 -89q38 -99 142 -149q49 -23 102 -24h6q51 0 96 16q48 17 93 48l4 141h-138l1 74z" />
<glyph unicode="H" horiz-adv-x="630" d="M481 694h91v-694h-91v311l-330 1v-312h-93v690h92l1 -73v-223h330v300z" />
<glyph unicode="I" d="M58 696h90l1 -695h-90z" />
<glyph unicode="J" horiz-adv-x="396" d="M63 72q36 -26 75 -28h8q35 0 64 18q31 19 51 63q19 42 19 97v6l-7 472h91l9 -478v-11q0 -63 -21 -115q-23 -55 -61.5 -85.5t-84.5 -44.5q-30 -8 -60 -8q-17 0 -34 2q-49 8 -90 33z" />
<glyph unicode="K" horiz-adv-x="636" d="M414 686h113l-278 -324l338 -364h-115l-330 360v-360h-93v688h93v-325z" />
<glyph unicode="L" horiz-adv-x="474" d="M142 690v-605h283v-83h-376v689z" />
<glyph unicode="M" horiz-adv-x="734" d="M369 330l285 389l35 -723h-86l-31 461l-203 -267l-207 270l-31 -461h-86l35 724z" />
<glyph unicode="N" horiz-adv-x="646" d="M145 467v-464h-87v697l445 -496l-3 492h88v-724z" />
<glyph unicode="O" horiz-adv-x="752" d="M354 627q-58 0 -104.5 -23.5t-74.5 -62t-43 -87.5q-14 -46 -14 -94v-6q1 -51 18 -100.5t47 -87.5t78.5 -61.5t108.5 -23.5q61 0 112 23.5t82.5 62t48.5 87.5q18 51 18 104q0 50 -18 98q-18 49 -50.5 87.5t-86.5 61.5q-52 22 -116 22h-6zM361 707q89 0 160.5 -31 t115.5 -81t67 -114q24 -63 24 -128q-1 -68 -24 -133q-24 -63 -67.5 -112.5t-113.5 -80t-155 -30.5q-83 0 -150 30.5t-108 80.5t-63 113.5t-22 130.5t21.5 130.5t62 113.5t106 80.5t146.5 30.5z" />
<glyph unicode="P" horiz-adv-x="506" d="M52 693l207 -1h4q60 0 104 -28q46 -28 67 -71q20 -42 20 -92q0 -52 -22 -97q-22 -43 -70 -72q-45 -28 -109 -28h-4l-105 -1v-300l-92 -2v692zM144 610v-225h108q32 0 56 16.5t35.5 41t12.5 53.5q1 4 1 7q0 25 -9 47q-10 25 -33.5 42t-56.5 17z" />
<glyph unicode="Q" horiz-adv-x="763" d="M360 627q-58 0 -104.5 -23.5t-75 -62t-42.5 -87.5q-14 -46 -14 -93v-7q1 -51 18 -100.5t47 -87.5t78.5 -61.5t107.5 -23.5q62 0 112.5 23.5t82 62t49 88t17.5 101t-17.5 100.5t-50 87.5t-86.5 61.5q-53 22 -116 22h-6zM367 707q89 0 160.5 -31t115 -81t67 -114 t23.5 -130.5t-24 -130t-67 -113t-113 -80t-156 -30.5q-83 0 -150 30.5t-107.5 80.5t-63 113.5t-22.5 130.5t22 130.5t62.5 113.5t106 80.5t146.5 30.5zM572 199l136 -151l-75 -62l-121 139l-67 76l73 59z" />
<glyph unicode="R" horiz-adv-x="489" d="M49 700l207 1h5q49 0 88 -19q41 -20 64 -52.5t33 -73.5q5 -24 5 -48q0 -16 -3 -32q-6 -40 -29 -76.5t-59 -58.5l164 -340h-101l-151 313q-11 -1 -26 -1l-105 -1l4 -311h-93zM141 618v-224h109q31 0 55 16.5t36 41t13 53.5v5q0 26 -9 49q-10 25 -33.5 42t-56.5 17h-114z " />
<glyph unicode="S" horiz-adv-x="528" d="M255 705q60 0 96.5 -9t72.5 -37l-46 -67q-42 35 -105 35q-12 0 -25 -1q-36 -4 -60 -28t-28 -54q-1 -4 -1 -8q0 -27 21 -54q25 -33 78 -52l81 -28q28 -10 54.5 -27t49.5 -43.5t37 -57.5q12 -29 12 -66v-6q-1 -40 -20 -82q-58 -125 -221 -125q-31 0 -67 5q-38 7 -65 15.5 t-38 13.5t-45 23l18 97q82 -38 137 -52q33 -9 66.5 -9t67 16.5t54.5 47.5q17 28 17 55q0 20 -9 41q-22 47 -75 64q-51 22 -80 32q-62 18 -102.5 53t-55.5 75q-10 28 -10 58q0 11 2 23q5 42 28 75.5t65.5 55t95.5 21.5z" />
<glyph unicode="T" horiz-adv-x="490" d="M16 686h458v-80l-182 -1l-4 -605h-92v1l3 604l-183 1v80z" />
<glyph unicode="U" horiz-adv-x="592" d="M145 685l2 -419q0 -42 12.5 -77t33 -56.5t47 -33t54 -11.5t54 12t47.5 33.5t34 57t14 79.5l2 -2l-1 414h91l4 -417v-6q0 -61 -20 -111q-21 -51 -55.5 -82.5t-79.5 -47.5q-41 -16 -85 -16h-5q-47 1 -91 18.5t-78 49t-53 82.5q-18 46 -18 101v11l-2 419z" />
<glyph unicode="V" horiz-adv-x="675" d="M445 429l114 264h94l-323 -730l-31 76l-277 654h94l113 -264l102 -248z" />
<glyph unicode="W" horiz-adv-x="865" d="M437 370l-167 -391l-243 713h88l159 -465l144 333l16 38l16 -39l143 -331l158 465l87 -1l-242 -711z" />
<glyph unicode="X" horiz-adv-x="695" d="M29 0l66 93l197 297l-126 180l-91 128h121l90 -128l63 -94l70 106l77 114l106 1l-80 -121h1l-119 -181l204 -305v-1l58 -90l-104 1l-57 84l-158 226l-143 -217l-56 -93h-119z" />
<glyph unicode="Y" horiz-adv-x="604" d="M16 692h106l182 -274l178 274h106l-234 -358v-331l-106 -3l7 330h1z" />
<glyph unicode="Z" horiz-adv-x="795" d="M169 682h513l-57 -90l-329 -499h379v-91l-555 -2l27 37q20 27 39 56l330 504h-347v85z" />
<glyph unicode="[" horiz-adv-x="348" d="M62 0v704l94 -2h128l-1 -93h-127v-517h130l-1 -92h-129h-94z" />
<glyph unicode="\" horiz-adv-x="492" d="M326 0l-267 704l100 -2l274 -702h-107z" />
<glyph unicode="]" horiz-adv-x="344" d="M284 0h-94h-129l-1 92h130v517h-127l-1 93h128l94 2v-704z" />
<glyph unicode="^" horiz-adv-x="605" d="M448 530h-87l-53 78l-59 -78l-92 -1l152 205z" />
<glyph unicode="_" horiz-adv-x="559" d="M511 0v-82h-463v82h463z" />
<glyph unicode="`" horiz-adv-x="1000" d="M461 985l140 -147l-50 -47l-152 121z" />
<glyph unicode="a" horiz-adv-x="509" d="M33 207q0 56 19 101t51 72t72 41q34 12 70 12q6 0 13 -1q42 -2 79 -19q23 -10 33 -26v40h93l-1 -427h-91v31q-37 -25 -83 -34q-21 -4 -42 -4q-24 0 -47 5q-44 10 -81 34.5t-60.5 70t-24.5 104.5zM119 210q0 -45 21.5 -78.5t54.5 -45.5q32 -12 65 -12h2q35 1 64 23.5 t39 59.5q3 12 3 40v15q-1 41 -3 54q-9 34 -31 55.5t-50 28.5q-15 4 -31 4q-13 0 -25 -2q-30 -6 -54 -23.5t-39.5 -48.5t-15.5 -70z" />
<glyph unicode="b" horiz-adv-x="511" d="M474 207q-1 -59 -24.5 -104.5t-60.5 -70t-81 -34.5q-23 -5 -47 -5q-21 0 -43 4q-45 9 -82 34v-31h-91l-1 748h93v-362q8 8 26 19t31 15q30 10 63 10q2 1 4 1q31 0 61 -8q31 -8 59 -26.5t48.5 -44.5t32.5 -63.5t12 -81.5zM379 211q0 45 -21 79t-52 47t-63 13h-3 q-33 -1 -61 -23.5t-38 -61.5q-2 -13 -3 -52v-15q0 -27 3 -38q10 -37 38 -58.5t61 -21.5q2 -1 3 -1q32 0 63 12t52 44t21 76z" />
<glyph unicode="c" horiz-adv-x="421" d="M283 430q54 -6 90 -26q15 -8 13 -7t7 -6l-50 -78q-7 10 -29.5 19t-38.5 11q-8 1 -15 1q-33 0 -64 -14q-37 -17 -56 -53q-20 -35 -20 -69q0 -14 4 -27q11 -46 59 -74q28 -16 60 -17h12q40 0 71 17q13 6 19 11l45 -78q-45 -40 -137 -40h-4q-74 0 -113 24q-82 49 -104 130 q-8 26 -8 53q0 54 31 110q34 61 97 91q50 23 105 23q13 0 26 -1z" />
<glyph unicode="d" horiz-adv-x="515" d="M43 207v6q0 47 15 87q16 43 43 69t62.5 43.5t72.5 19.5h14q31 0 61 -6q45 -10 68 -23v345h93l-1 -748h-90l-1 38q-3 -2 -14.5 -12.5t-18.5 -13.5q-37 -16 -79 -18q-7 -1 -13 -1q-35 0 -68 11q-39 13 -71.5 38t-52 68t-20.5 97zM137 211q0 -44 21.5 -76t53.5 -44 q30 -12 62 -12q1 0 2 1q34 0 62 21.5t38 58.5q3 12 3 42q0 5 -1 11q0 39 -2 52q-11 39 -39 61.5t-61 23.5h-2q-32 0 -63 -13q-32 -13 -53 -47t-21 -79z" />
<glyph unicode="e" horiz-adv-x="500" d="M452 81q-28 -36 -82 -61q-29 -14 -72 -19q-20 -2 -40 -2q-27 0 -51 4q-56 11 -96 43.5t-58 75.5q-18 42 -18 89q0 51 19 95t59.5 77.5t94.5 44.5q27 5 56 5q27 0 50 -4q60 -12 96.5 -52t46.5 -91q5 -25 5 -51.5t-5 -54.5l-325 -1q12 -42 40.5 -64t89.5 -27 q12 -2 27.5 -0.5t41.5 11t45 27.5l1 1l75 -45v-1zM373 252q-9 104 -110 104q-56 0 -90 -32t-39 -73z" />
<glyph unicode="f" horiz-adv-x="359" d="M81 0v346h-50v76h54q0 61 15 106.5t39.5 69t50 34t51.5 10.5q17 0 30 -3.5t26 -9t21 -7.5l-48 -75l-17 9q-40 0 -57 -29t-17 -105h103v-78h-106l1 -344h-96z" />
<glyph unicode="g" horiz-adv-x="476" d="M118 224q0 -39 20.5 -69.5t50.5 -43.5t61.5 -13t57.5 21.5t35 59.5q0 10 1 35q1 13 0.5 22.5t-0.5 15.5q0 33 -16.5 56t-41.5 32q-20 7 -42 7q-6 0 -12 -1q-30 -2 -55 -15.5t-42 -41.5t-17 -65zM441 6q0 -108 -85 -170q-48 -33 -114 -34q-3 -1 -7 -1q-62 0 -111 27 l-36 20q-7 3 -17 12l36 71l58 -30q24 -12 53 -14h11q23 0 45 6q26 8 48 28t30 49l-1 30l1 59q-22 -23 -54 -34q-30 -10 -62 -10h-6q-35 1 -70 15t-63 37.5t-45.5 62t-18.5 84.5q0 50 17 92.5t46.5 69t65.5 41.5q35 14 72 14h6q40 -1 77 -18q23 -10 33 -26l-1 40h94z" />
<glyph unicode="h" horiz-adv-x="487" d="M437 229v-109v-48q0 -10 -0.5 -28t-0.5 -45h-94q0 32 0.5 64t0.5 69v103q0 39 -15 65.5t-38 37.5q-18 8 -40 8h-8q-27 -2 -49.5 -15.5t-37.5 -38.5t-15 -57v-236h-90l-1 743l93 6v-361q10 8 26.5 19t29.5 15q32 11 66 11q88 0 130.5 -55t42.5 -148z" />
<glyph unicode="i" d="M51 545q0 23 16.5 36.5t36.5 14.5h1q19 0 35 -13t16 -37q0 -25 -16.5 -39.5t-36 -14.5t-36 14t-16.5 39zM59 433h92v-435h-90z" />
<glyph unicode="j" d="M51 545q0 23 16.5 36.5t36.5 14.5h1q19 0 35 -13t16 -37q0 -25 -16.5 -39.5t-36 -14.5t-36 14t-16.5 39zM59 430h92l-1 -532h-91v532z" />
<glyph unicode="k" horiz-adv-x="490" d="M143 748l-1 -510l55 55l132 132l118 -1l-196 -197l226 -227l-118 -1l-162 162l-55 55v-216h-93l1 748h93z" />
<glyph unicode="l" horiz-adv-x="210" d="M151 238v-238h-93v782h94z" />
<glyph unicode="m" horiz-adv-x="746" d="M254 433q35 0 59 -9.5t46 -30.5q9 -7 17 -8.5t12 -0.5t13.5 8t13.5 9q21 15 49 23q15 6 25 6.5t23 -0.5q87 0 130.5 -57t43.5 -150v-107v-46q0 -9 -0.5 -25t-0.5 -44l-95 -1v60q0 29 0.5 63t0.5 102q0 38 -13.5 65.5t-33.5 40t-43.5 12.5t-43.5 -11.5t-33.5 -36.5 t-13.5 -59q0 -6 -1 -236h-87v64q0 31 0.5 66.5t0.5 102.5q0 39 -14 66.5t-35 38.5q-19 12 -42 12h-2q-24 -1 -44.5 -12.5t-34.5 -36t-14 -56.5v-245h-90l-1 429h93v-35q17 12 27 18t35 13.5t53 7.5z" />
<glyph unicode="n" horiz-adv-x="426" d="M404 230l-1 -230h-94v66q0 32 0.5 69t0.5 104q0 39 -14 66t-34 38q-19 10 -39 10q-3 0 -6 -1q-24 -1 -45 -13.5t-34.5 -37.5t-13.5 -57l2 -244h-90l-1 429h93v-33q5 3 46 24q19 9 74 9q86 0 121 -51.5t35 -147.5z" />
<glyph unicode="o" horiz-adv-x="499" d="M248 362q-43 0 -75 -21t-47 -51q-15 -32 -15 -69q0 -35 14 -65q14 -31 45.5 -51.5t74.5 -20.5q66 0 105 43q26 29 33 69q3 16 3 31q0 24 -8 47q-11 36 -45.5 62t-84.5 26zM249 434q72 0 124 -32t75 -80q23 -47 23 -102q0 -58 -25 -108q-24 -48 -77 -80t-124 -32 q-72 0 -125 32t-76 80q-22 47 -22 101q0 59 26 109q24 48 77 80t124 32z" />
<glyph unicode="p" horiz-adv-x="507" d="M468 207q-1 -59 -24 -104.5t-60.5 -70t-81.5 -34.5q-23 -5 -47 -5q-21 0 -43 4q-45 9 -81 34l-1 -232h-90l-1 628h93v-32q36 25 82 34q21 4 41 4q25 0 49 -6q45 -11 82.5 -37t59.5 -74q22 -46 22 -104v-5zM374 211q0 45 -21 79t-53 47q-31 13 -63 13h-2q-33 -1 -61 -23.5 t-39 -61.5q-2 -13 -3 -52v-11q0 -30 3 -42q10 -37 38 -58.5t61 -21.5q2 -1 3 -1q32 0 63 12t52.5 44t21.5 76z" />
<glyph unicode="q" horiz-adv-x="497" d="M34 207v7q0 41 12 76q12 38 33.5 64.5t50.5 45t62 26.5q28 6 58 6h8q33 -1 64 -13q33 -11 48 -32v40h93l-1 -628h-90l-1 232q-36 -25 -81 -34q-22 -4 -43 -4q-24 0 -47 5q-44 10 -81.5 34.5t-60.5 70t-24 104.5zM128 211q0 -44 21.5 -76t52.5 -44t63 -12q1 0 3 1 q33 0 61 21.5t38 58.5q3 12 3 42v11q-1 39 -3 52q-11 39 -39 61.5t-61 23.5h-2q-32 0 -63 -13q-32 -13 -53 -47t-21 -79z" />
<glyph unicode="r" horiz-adv-x="343" d="M261 440q29 0 57 -13l-36 -82q-12 3 -25 3q-16 0 -35 -4q-32 -8 -53 -30q-18 -20 -32 -51.5t-14 -58.5l-1 -204h-90l-1 429h93l-1 -86l1 1q5 33 29.5 56t52 31.5t55.5 8.5z" />
<glyph unicode="s" horiz-adv-x="416" d="M45 74l68 60q34 -43 93 -50q8 -1 16 -1q20 0 35 7q21 11 27 27q2 6 2 12q0 10 -6 21q-11 16 -38 24q-76 22 -93 28q-38 16 -54.5 47t-16.5 65q0 18 7 37.5t23 39t49 32t77 12.5q84 0 124 -41l-49 -64q-24 28 -61 33q-13 2 -28.5 -0.5t-30 -13.5t-14.5 -31q0 -36 47 -51 l47 -9q51 -16 78 -46t29 -62v-8q0 -28 -10 -54q-11 -29 -32 -49q-25 -24 -57 -32.5t-75 -9.5h-3q-33 0 -83 21q-53 21 -71 56z" />
<glyph unicode="t" horiz-adv-x="243" d="M167 422h48v-84h-49v-340h-95v342h-43v82h46v92h93v-92z" />
<glyph unicode="u" horiz-adv-x="472" d="M41 199q0 70 0.5 109t0.5 48v28v45h94v-239q0 -39 13.5 -63.5t34.5 -32.5q11 -4 24 -4q10 0 20 2q23 6 43.5 22t34.5 43t14 59l-1 213h91l1 -429h-93l-2 64q-8 -5 -25 -24t-27 -24q-32 -16 -66 -16q-87 0 -122 51.5t-35 147.5z" />
<glyph unicode="v" horiz-adv-x="467" d="M438 429l-208 -466l-200 464l96 1l105 -247l116 249z" />
<glyph unicode="w" horiz-adv-x="585" d="M312 342l84 -165l92 253l92 -1l-168 -460l-101 197l-109 -197l-170 458l96 1l94 -254z" />
<glyph unicode="x" horiz-adv-x="492" d="M33 0l66 93l96 141l-68 101l-66 92l120 1l56 -93l13 -20l75 113h106l-80 -120l-48 -73l76 -115l80 -121l-106 1l-77 114l-27 40l-40 -61l-56 -93h-120z" />
<glyph unicode="y" horiz-adv-x="462" d="M183 75l-164 352l96 1l118 -247l128 249l91 -1l-306 -629h-107z" />
<glyph unicode="z" horiz-adv-x="446" d="M58 346v78h353l-54 -81l-168 -257h228v-86h-388l236 347z" />
<glyph unicode="{" horiz-adv-x="268" d="M135 144q8 -102 93 -168v-112q-78 38 -128.5 110t-59.5 173q0 1 0.5 9.5t1 20t-0.5 27.5t-3.5 31t-7.5 30.5t-12.5 26.5t-19.5 18.5t-28 7.5q30 0 46.5 28t19.5 61.5t3 64t1 30.5q7 99 58 168.5t131 104.5v-103q-83 -59 -95 -167q0 -1 -0.5 -31t-3.5 -63.5t-19.5 -62 t-46.5 -28.5q16 0 28.5 -7.5t19.5 -19t12.5 -27.5t7.5 -31.5t3 -32t1 -28.5v-20q-1 -9 -1 -10zM135 144z" />
<glyph unicode="|" d="M151 238l-2 -238h-93v697h94z" />
<glyph unicode="}" horiz-adv-x="268" d="M64 144v10q-1 9 -1 20.5t1 28t3 32t7 31.5t12.5 27.5t20 19t28.5 7.5q-30 0 -47 28.5t-19.5 62t-3 63.5t-0.5 31q-12 108 -95 167v103q80 -35 131 -104.5t58 -168.5q0 -1 1 -30q0 -31 3 -64.5t19.5 -61.5t46.5 -28q-16 0 -28 -7.5t-19.5 -18.5t-13 -26.5t-7.5 -30.5 t-3 -31t-0.5 -27.5t1 -20t0.5 -9.5q-9 -101 -59.5 -173t-128.5 -110v112q85 66 93 168zM64 144z" />
<glyph unicode="~" horiz-adv-x="496" d="M282 559q7 -14 21 -15.5t23 9t2 24.5v1l-1 1l42 19v-1q7 -16 7 -31q0 -7 -2 -14q-5 -21 -23 -32.5t-39 -15.5q-6 -1 -12 -1q-14 0 -28 6q-20 9 -30 30zM242 539q-7 14 -21 15.5t-23 -9t-2 -24.5v-1l1 -1l-42 -19v1q-7 16 -7 31q0 7 2 14q5 21 23 32.5t39 15.5q6 1 12 1 q14 0 28 -6q20 -9 30 -30z" />
<glyph unicode="&#xa1;" horiz-adv-x="238" d="M74 1l-6 441h91l5 -441h-90zM54 634q0 28 18 44t40 16t40 -16.5t18 -45.5q0 -27 -18 -42q-17 -15 -39 -15l-1 1q-22 0 -40 15.5t-18 42.5z" />
<glyph unicode="&#xa5;" horiz-adv-x="604" d="M48 200h501l-2 -88h-501zM45 380h501l2 -88h-501zM16 692h106l182 -274l178 274h106l-234 -358v-331l-106 -3l7 330h1z" />
<glyph unicode="&#xa6;" d="M63 315h84l3 -315h-87v315zM64 696h84l-1 -309h-84z" />
<glyph unicode="&#xa8;" horiz-adv-x="713" d="M160 805q0 27 18 43t40 16t40 -15t18 -42q0 -29 -18 -45.5t-40 -16.5t-40 16t-18 44zM408 800q0 27 18 43t40 16t40 -15t18 -42q0 -29 -18 -45.5t-40 -16.5t-40 16t-18 44z" />
<glyph unicode="&#xaa;" horiz-adv-x="509" d="M33 207q0 56 19 101t51 72t72 41q34 12 70 12q6 0 13 -1q42 -2 79 -19q23 -10 33 -26v40h93l-1 -427h-91v31q-37 -25 -83 -34q-21 -4 -42 -4q-24 0 -47 5q-44 10 -81 34.5t-60.5 70t-24.5 104.5zM119 210q0 -45 21.5 -78.5t54.5 -45.5q32 -12 65 -12h2q35 1 64 23.5 t39 59.5q3 12 3 40v15q-1 41 -3 54q-9 34 -31 55.5t-50 28.5q-15 4 -31 4q-13 0 -25 -2q-30 -6 -54 -23.5t-39.5 -48.5t-15.5 -70z" />
<glyph unicode="&#xab;" horiz-adv-x="605" d="M444 428v-87l-78 -53l78 -59l1 -91l-204 151zM237 430v-86l-78 -54l78 -58l1 -92l-205 152z" />
<glyph unicode="&#xad;" horiz-adv-x="470" d="M438 217h-389v90l389 1v-91z" />
<glyph unicode="&#xb0;" horiz-adv-x="560" d="M256 802q0 -16 12 -22.5t24.5 0t12.5 23.5q0 15 -12.5 21.5t-24.5 -0.5t-12 -22zM210 801q0 32 22 49q20 16 43 16h5q26 -2 48 -20t22 -47q0 -31 -22 -49.5t-48 -19.5h-3q-24 0 -45 18q-22 19 -22 53z" />
<glyph unicode="&#xb1;" horiz-adv-x="495" d="M442 127h-388v90l388 1v-91zM429 474l-136 -1l1 -155h-91v155l-141 -1v90l143 -1l-3 146h90v-144l137 1v-90z" />
<glyph unicode="&#xb2;" horiz-adv-x="402" d="M151 525l152 198q22 34 22 61q0 5 -1 10q-5 31 -39 39q-5 1 -11 1q-13 0 -28 -6q-21 -9 -28 -30l-39 25q25 53 91 53h5q50 -1 75 -28q20 -21 20 -55v-15q-6 -44 -41 -93l-86 -115l137 1v-46h-179h-50z" />
<glyph unicode="&#xb3;" horiz-adv-x="382" d="M269 730q23 4 34 30q5 12 5 24t-5 23q-10 20 -37 26q-8 2 -17 2q-11 0 -23 -3q-21 -5 -31 -23l-38 24q30 41 96 41h6q32 0 56 -15.5t33 -38.5q7 -14 7 -31q0 -9 -2 -19q-5 -28 -27 -51q32 -33 40 -69q2 -13 2 -25q0 -22 -9 -40q-14 -28 -43.5 -47t-66.5 -19h-7 q-51 0 -100 26l29 34q18 -8 33 -12t25 -4h22q36 0 55 27q12 18 12 39q0 9 -2 19q-9 31 -42 42l-46 1l-1 38z" />
<glyph unicode="&#xb4;" horiz-adv-x="1000" d="M424 985l62 -73l-152 -121l-50 47z" />
<glyph unicode="&#xb9;" horiz-adv-x="284" d="M174 786l-13 -14l-31 28l67 63l25 27l1 -58v-263h1v-39h-49v39z" />
<glyph unicode="&#xba;" horiz-adv-x="499" d="M248 362q-43 0 -75 -21t-47 -51q-15 -32 -15 -69q0 -35 14 -65q14 -31 45.5 -51.5t74.5 -20.5q66 0 105 43q26 29 33 69q3 16 3 31q0 24 -8 47q-11 36 -45.5 62t-84.5 26zM249 434q72 0 124 -32t75 -80q23 -47 23 -102q0 -58 -25 -108q-24 -48 -77 -80t-124 -32 q-72 0 -125 32t-76 80q-22 47 -22 101q0 59 26 109q24 48 77 80t124 32z" />
<glyph unicode="&#xbb;" horiz-adv-x="605" d="M34 428l203 -139l-204 -151l1 91l78 59l-78 53v87zM241 430l204 -138l-205 -152l1 92l78 58l-78 54v86z" />
<glyph unicode="&#xbf;" horiz-adv-x="548" d="M300 77q31 0 53 9.5t33.5 23.5t26.5 30l42 -69q-32 -36 -72 -53.5t-96 -17.5q-89 0 -141.5 50t-52.5 132q0 41 18 76.5t59 77.5l42 44q37 40 43.5 60.5t6.5 72.5l2 17l97 5l-1 -33q0 -58 -16 -91t-54 -72l-43 -46q-8 -9 -17 -17t-17 -18.5t-14.5 -20.5t-10.5 -21.5 t-3 -23.5q3 -115 115 -115zM370 690q0 -27 -18 -42.5t-40 -15.5l-1 -1q-22 0 -39 15q-18 15 -18 42q0 29 18 45.5t40 16.5t40 -16t18 -44z" />
<glyph unicode="&#xc0;" horiz-adv-x="695" d="M271 961l140 -147l-50 -47l-152 121zM329 731l41 -92l283 -638h-95l-86 182h-275l-81 -182h-95l278 655zM434 266l-104 248l-97 -248h201z" />
<glyph unicode="&#xc1;" horiz-adv-x="695" d="M371 961l62 -73l-152 -121l-50 47zM329 731l41 -92l283 -638h-95l-86 182h-275l-81 -182h-95l278 655zM434 266l-104 248l-97 -248h201z" />
<glyph unicode="&#xc2;" horiz-adv-x="674" d="M475 792h-87l-53 78l-59 -78l-92 -1l152 205zM329 731l41 -92l283 -638h-95l-86 182h-275l-81 -182h-95l278 655zM434 266l-104 248l-97 -248h201z" />
<glyph unicode="&#xc3;" horiz-adv-x="674" d="M349 851q7 -14 21 -15.5t23 9t2 24.5v1l-1 1l42 19v-1q7 -16 7 -31q0 -7 -2 -14q-5 -21 -23 -32.5t-39 -15.5q-6 -1 -12 -1q-14 0 -28 6q-20 9 -30 30zM309 831q-7 14 -21 15.5t-23 -9t-2 -24.5v-1l1 -1l-42 -19v1q-7 16 -7 31q0 7 2 14q5 21 23 32.5t39 15.5q6 1 12 1 q14 0 28 -6q20 -9 30 -30zM329 731l41 -92l283 -638h-95l-86 182h-275l-81 -182h-95l278 655zM434 266l-104 248l-97 -248h201z" />
<glyph unicode="&#xc4;" horiz-adv-x="695" d="M329 731l41 -92l283 -638h-95l-86 182h-275l-81 -182h-95l278 655zM434 266l-104 248l-97 -248h201zM160 805q0 27 18 43t40 16t40 -15t18 -42q0 -29 -18 -45.5t-40 -16.5t-40 16t-18 44zM408 800q0 27 18 43t40 16t40 -15t18 -42q0 -29 -18 -45.5t-40 -16.5t-40 16 t-18 44z" />
<glyph unicode="&#xc5;" horiz-adv-x="695" d="M305 802q0 -16 12 -22.5t24.5 0t12.5 23.5q0 15 -12.5 21.5t-24.5 -0.5t-12 -22zM259 801q0 32 22 49q20 16 43 16h5q26 -2 48 -20t22 -47q0 -31 -22 -49.5t-48 -19.5h-3q-24 0 -45 18q-22 19 -22 53zM329 731l41 -92l283 -638h-95l-86 182h-275l-81 -182h-95l278 655z M434 266l-104 248l-97 -248h201z" />
<glyph unicode="&#xc8;" horiz-adv-x="518" d="M197 961l140 -147l-50 -47l-152 121zM54 693h366v-85h-274v-196h196v-83h-196v-247h283v-82h-375v693z" />
<glyph unicode="&#xc9;" horiz-adv-x="518" d="M295 961l62 -73l-152 -121l-50 47zM54 693h366v-85h-274v-196h196v-83h-196v-247h283v-82h-375v693z" />
<glyph unicode="&#xca;" horiz-adv-x="483" d="M383 768h-87l-53 78l-59 -78l-92 -1l152 205zM54 693h366v-85h-274v-196h196v-83h-196v-247h283v-82h-375v693z" />
<glyph unicode="&#xcb;" horiz-adv-x="483" d="M55 832q0 27 18 43t40 16t40 -15t18 -42q0 -29 -18 -45.5t-40 -16.5t-40 16t-18 44zM303 827q0 27 18 43t40 16t40 -15t18 -42q0 -29 -18 -45.5t-40 -16.5t-40 16t-18 44zM54 693h366v-85h-274v-196h196v-83h-196v-247h283v-82h-375v693z" />
<glyph unicode="&#xcc;" d="M18 961l140 -147l-50 -47l-152 121zM58 696h90l1 -695h-90z" />
<glyph unicode="&#xcd;" d="M190 961l62 -73l-152 -121l-50 47zM58 696h90l1 -695h-90z" />
<glyph unicode="&#xce;" d="M248 768h-87l-53 78l-59 -78l-92 -1l152 205zM58 696h90l1 -695h-90z" />
<glyph unicode="&#xcf;" d="M58 832q0 27 18 43t40 16t40 -15t18 -42q0 -29 -18 -45.5t-40 -16.5t-40 16t-18 44zM306 827q0 27 18 43t40 16t40 -15t18 -42q0 -29 -18 -45.5t-40 -16.5t-40 16t-18 44zM195 696h90l1 -695h-90z" />
<glyph unicode="&#xd1;" horiz-adv-x="646" d="M78 826q7 -14 21 -15.5t23 9t2 24.5v1l-1 1l42 19v-1q7 -16 7 -31q0 -7 -2 -14q-5 -21 -23 -32.5t-39 -15.5q-6 -1 -12 -1q-14 0 -28 6q-20 9 -30 30zM38 806q-7 14 -21 15.5t-23 -9t-2 -24.5v-1l1 -1l-42 -19v1q-7 16 -7 31q0 7 2 14q5 21 23 32.5t39 15.5q6 1 12 1 q14 0 28 -6q20 -9 30 -30zM145 467v-464h-87v697l445 -496l-3 492h88v-724z" />
<glyph unicode="&#xd2;" horiz-adv-x="752" d="M271 961l140 -147l-50 -47l-152 121zM354 627q-58 0 -104.5 -23.5t-74.5 -62t-43 -87.5q-14 -46 -14 -94v-6q1 -51 18 -100.5t47 -87.5t78.5 -61.5t108.5 -23.5q61 0 112 23.5t82.5 62t48.5 87.5q18 51 18 104q0 50 -18 98q-18 49 -50.5 87.5t-86.5 61.5q-52 22 -116 22 h-6zM361 707q89 0 160.5 -31t115.5 -81t67 -114q24 -63 24 -128q-1 -68 -24 -133q-24 -63 -67.5 -112.5t-113.5 -80t-155 -30.5q-83 0 -150 30.5t-108 80.5t-63 113.5t-22 130.5t21.5 130.5t62 113.5t106 80.5t146.5 30.5z" />
<glyph unicode="&#xd3;" horiz-adv-x="752" d="M451 961l62 -73l-152 -121l-50 47zM354 627q-58 0 -104.5 -23.5t-74.5 -62t-43 -87.5q-14 -46 -14 -94v-6q1 -51 18 -100.5t47 -87.5t78.5 -61.5t108.5 -23.5q61 0 112 23.5t82.5 62t48.5 87.5q18 51 18 104q0 50 -18 98q-18 49 -50.5 87.5t-86.5 61.5q-52 22 -116 22h-6 zM361 707q89 0 160.5 -31t115.5 -81t67 -114q24 -63 24 -128q-1 -68 -24 -133q-24 -63 -67.5 -112.5t-113.5 -80t-155 -30.5q-83 0 -150 30.5t-108 80.5t-63 113.5t-22 130.5t21.5 130.5t62 113.5t106 80.5t146.5 30.5z" />
<glyph unicode="&#xd4;" horiz-adv-x="752" d="M507 768h-87l-53 78l-59 -78l-92 -1l152 205zM354 627q-58 0 -104.5 -23.5t-74.5 -62t-43 -87.5q-14 -46 -14 -94v-6q1 -51 18 -100.5t47 -87.5t78.5 -61.5t108.5 -23.5q61 0 112 23.5t82.5 62t48.5 87.5q18 51 18 104q0 50 -18 98q-18 49 -50.5 87.5t-86.5 61.5 q-52 22 -116 22h-6zM361 707q89 0 160.5 -31t115.5 -81t67 -114q24 -63 24 -128q-1 -68 -24 -133q-24 -63 -67.5 -112.5t-113.5 -80t-155 -30.5q-83 0 -150 30.5t-108 80.5t-63 113.5t-22 130.5t21.5 130.5t62 113.5t106 80.5t146.5 30.5z" />
<glyph unicode="&#xd5;" horiz-adv-x="752" d="M381 827q7 -14 21 -15.5t23 9t2 24.5v1l-1 1l42 19v-1q7 -16 7 -31q0 -7 -2 -14q-5 -21 -23 -32.5t-39 -15.5q-6 -1 -12 -1q-14 0 -28 6q-20 9 -30 30zM341 807q-7 14 -21 15.5t-23 -9t-2 -24.5v-1l1 -1l-42 -19v1q-7 16 -7 31q0 7 2 14q5 21 23 32.5t39 15.5q6 1 12 1 q14 0 28 -6q20 -9 30 -30zM354 627q-58 0 -104.5 -23.5t-74.5 -62t-43 -87.5q-14 -46 -14 -94v-6q1 -51 18 -100.5t47 -87.5t78.5 -61.5t108.5 -23.5q61 0 112 23.5t82.5 62t48.5 87.5q18 51 18 104q0 50 -18 98q-18 49 -50.5 87.5t-86.5 61.5q-52 22 -116 22h-6zM361 707 q89 0 160.5 -31t115.5 -81t67 -114q24 -63 24 -128q-1 -68 -24 -133q-24 -63 -67.5 -112.5t-113.5 -80t-155 -30.5q-83 0 -150 30.5t-108 80.5t-63 113.5t-22 130.5t21.5 130.5t62 113.5t106 80.5t146.5 30.5z" />
<glyph unicode="&#xd6;" horiz-adv-x="812" d="M398 -3zM354 627q-58 0 -104.5 -23.5t-74.5 -62t-43 -87.5q-14 -46 -14 -94v-6q1 -51 18 -100.5t47 -87.5t78.5 -61.5t108.5 -23.5q61 0 112 23.5t82.5 62t48.5 87.5q18 51 18 104q0 50 -18 98q-18 49 -50.5 87.5t-86.5 61.5q-52 22 -116 22h-6zM361 707q89 0 160.5 -31 t115.5 -81t67 -114q24 -63 24 -128q-1 -68 -24 -133q-24 -63 -67.5 -112.5t-113.5 -80t-155 -30.5q-83 0 -150 30.5t-108 80.5t-63 113.5t-22 130.5t21.5 130.5t62 113.5t106 80.5t146.5 30.5zM186 805q0 27 18 43t40 16t40 -15t18 -42q0 -29 -18 -45.5t-40 -16.5t-40 16 t-18 44zM434 800q0 27 18 43t40 16t40 -15t18 -42q0 -29 -18 -45.5t-40 -16.5t-40 16t-18 44z" />
<glyph unicode="&#xd7;" horiz-adv-x="495" d="M405 457l-96 -97l110 -109l-64 -64l-110 109l-98 -100l-64 64l101 101l-105 100l64 64l102 -102l96 98z" />
<glyph unicode="&#xd9;" horiz-adv-x="592" d="M145 685l2 -419q0 -42 12.5 -77t33 -56.5t47 -33t54 -11.5t54 12t47.5 33.5t34 57t14 79.5l2 -2l-1 414h91l4 -417v-6q0 -61 -20 -111q-21 -51 -55.5 -82.5t-79.5 -47.5q-41 -16 -85 -16h-5q-47 1 -91 18.5t-78 49t-53 82.5q-18 46 -18 101v11l-2 419zM210 961l140 -147 l-50 -47l-152 121z" />
<glyph unicode="&#xda;" horiz-adv-x="592" d="M145 685l2 -419q0 -42 12.5 -77t33 -56.5t47 -33t54 -11.5t54 12t47.5 33.5t34 57t14 79.5l2 -2l-1 414h91l4 -417v-6q0 -61 -20 -111q-21 -51 -55.5 -82.5t-79.5 -47.5q-41 -16 -85 -16h-5q-47 1 -91 18.5t-78 49t-53 82.5q-18 46 -18 101v11l-2 419zM395 961l62 -73 l-152 -121l-50 47z" />
<glyph unicode="&#xdb;" horiz-adv-x="592" d="M145 685l2 -419q0 -42 12.5 -77t33 -56.5t47 -33t54 -11.5t54 12t47.5 33.5t34 57t14 79.5l2 -2l-1 414h91l4 -417v-6q0 -61 -20 -111q-21 -51 -55.5 -82.5t-79.5 -47.5q-41 -16 -85 -16h-5q-47 1 -91 18.5t-78 49t-53 82.5q-18 46 -18 101v11l-2 419zM443 768h-87 l-53 78l-59 -78l-92 -1l152 205z" />
<glyph unicode="&#xdc;" horiz-adv-x="592" d="M145 685l2 -419q0 -42 12.5 -77t33 -56.5t47 -33t54 -11.5t54 12t47.5 33.5t34 57t14 79.5l2 -2l-1 414h91l4 -417v-6q0 -61 -20 -111q-21 -51 -55.5 -82.5t-79.5 -47.5q-41 -16 -85 -16h-5q-47 1 -91 18.5t-78 49t-53 82.5q-18 46 -18 101v11l-2 419zM120 805 q0 27 18 43t40 16t40 -15t18 -42q0 -29 -18 -45.5t-40 -16.5t-40 16t-18 44zM368 800q0 27 18 43t40 16t40 -15t18 -42q0 -29 -18 -45.5t-40 -16.5t-40 16t-18 44z" />
<glyph unicode="&#xdd;" horiz-adv-x="604" d="M392 961l62 -73l-152 -121l-50 47zM16 692h106l182 -274l178 274h106l-234 -358v-331l-106 -3l7 330h1z" />
<glyph unicode="&#xdf;" horiz-adv-x="517" d="M130 0h-37v1l-49 -1v688h200l3 -2h5q42 0 76 -16q36 -18 56.5 -46t29.5 -64q5 -21 5 -42q0 -13 -3 -26q-5 -33 -26.5 -62t-56.5 -44q-1 0 -1 -1.5t1 -1.5q46 -2 79.5 -31.5t47.5 -72.5q12 -35 12 -73v-20q-4 -49 -25.5 -91t-67.5 -69q-43 -25 -100 -25h-8l-10 -1h-92v95 h115q39 0 64 24t29 59q1 11 1 22q0 24 -6 48q-8 34 -35 59t-64 26v1h-104v70q14 0 42.5 1.5t31.5 1.5q36 5 59 27.5t27 51.5q1 10 1 20q0 20 -5 39q-8 29 -34 49t-63 21v1h-97z" />
<glyph unicode="&#xe0;" horiz-adv-x="509" d="M204 686l140 -147l-50 -47l-152 121zM33 207q0 56 19 101t51 72t72 41q34 12 70 12q6 0 13 -1q42 -2 79 -19q23 -10 33 -26v40h93l-1 -427h-91v31q-37 -25 -83 -34q-21 -4 -42 -4q-24 0 -47 5q-44 10 -81 34.5t-60.5 70t-24.5 104.5zM119 210q0 -45 21.5 -78.5 t54.5 -45.5q32 -12 65 -12h2q35 1 64 23.5t39 59.5q3 12 3 40v15q-1 41 -3 54q-9 34 -31 55.5t-50 28.5q-15 4 -31 4q-13 0 -25 -2q-30 -6 -54 -23.5t-39.5 -48.5t-15.5 -70z" />
<glyph unicode="&#xe1;" horiz-adv-x="509" d="M336 688l62 -73l-152 -121l-50 47zM33 207q0 56 19 101t51 72t72 41q34 12 70 12q6 0 13 -1q42 -2 79 -19q23 -10 33 -26v40h93l-1 -427h-91v31q-37 -25 -83 -34q-21 -4 -42 -4q-24 0 -47 5q-44 10 -81 34.5t-60.5 70t-24.5 104.5zM119 210q0 -45 21.5 -78.5t54.5 -45.5 q32 -12 65 -12h2q35 1 64 23.5t39 59.5q3 12 3 40v15q-1 41 -3 54q-9 34 -31 55.5t-50 28.5q-15 4 -31 4q-13 0 -25 -2q-30 -6 -54 -23.5t-39.5 -48.5t-15.5 -70z" />
<glyph unicode="&#xe2;" horiz-adv-x="509" d="M392 495h-87l-53 78l-59 -78l-92 -1l152 205zM33 207q0 56 19 101t51 72t72 41q34 12 70 12q6 0 13 -1q42 -2 79 -19q23 -10 33 -26v40h93l-1 -427h-91v31q-37 -25 -83 -34q-21 -4 -42 -4q-24 0 -47 5q-44 10 -81 34.5t-60.5 70t-24.5 104.5zM119 210q0 -45 21.5 -78.5 t54.5 -45.5q32 -12 65 -12h2q35 1 64 23.5t39 59.5q3 12 3 40v15q-1 41 -3 54q-9 34 -31 55.5t-50 28.5q-15 4 -31 4q-13 0 -25 -2q-30 -6 -54 -23.5t-39.5 -48.5t-15.5 -70z" />
<glyph unicode="&#xe3;" horiz-adv-x="509" d="M266 554q7 -14 21 -15.5t23 9t2 24.5v1l-1 1l42 19v-1q7 -16 7 -31q0 -7 -2 -14q-5 -21 -23 -32.5t-39 -15.5q-6 -1 -12 -1q-14 0 -28 6q-20 9 -30 30zM226 534q-7 14 -21 15.5t-23 -9t-2 -24.5v-1l1 -1l-42 -19v1q-7 16 -7 31q0 7 2 14q5 21 23 32.5t39 15.5q6 1 12 1 q14 0 28 -6q20 -9 30 -30zM33 207q0 56 19 101t51 72t72 41q34 12 70 12q6 0 13 -1q42 -2 79 -19q23 -10 33 -26v40h93l-1 -427h-91v31q-37 -25 -83 -34q-21 -4 -42 -4q-24 0 -47 5q-44 10 -81 34.5t-60.5 70t-24.5 104.5zM119 210q0 -45 21.5 -78.5t54.5 -45.5 q32 -12 65 -12h2q35 1 64 23.5t39 59.5q3 12 3 40v15q-1 41 -3 54q-9 34 -31 55.5t-50 28.5q-15 4 -31 4q-13 0 -25 -2q-30 -6 -54 -23.5t-39.5 -48.5t-15.5 -70z" />
<glyph unicode="&#xe4;" horiz-adv-x="496" d="M33 207q0 56 19 101t51 72t72 41q34 12 70 12q6 0 13 -1q42 -2 79 -19q23 -10 33 -26v40h93l-1 -427h-91v31q-37 -25 -83 -34q-21 -4 -42 -4q-24 0 -47 5q-44 10 -81 34.5t-60.5 70t-24.5 104.5zM119 210q0 -45 21.5 -78.5t54.5 -45.5q32 -12 65 -12h2q35 1 64 23.5 t39 59.5q3 12 3 40v15q-1 41 -3 54q-9 34 -31 55.5t-50 28.5q-15 4 -31 4q-13 0 -25 -2q-30 -6 -54 -23.5t-39.5 -48.5t-15.5 -70zM81 573q0 27 18 43t40 16t40 -15t18 -42q0 -29 -18 -45.5t-40 -16.5t-40 16t-18 44zM329 568q0 27 18 43t40 16t40 -15t18 -42 q0 -29 -18 -45.5t-40 -16.5t-40 16t-18 44z" />
<glyph unicode="&#xe5;" horiz-adv-x="496" d="M232 582q0 -16 12 -22.5t24.5 0t12.5 23.5q0 15 -12.5 21.5t-24.5 -0.5t-12 -22zM186 581q0 32 22 49q20 16 43 16h5q26 -2 48 -20t22 -47q0 -31 -22 -49.5t-48 -19.5h-3q-24 0 -45 18q-22 19 -22 53zM33 207q0 56 19 101t51 72t72 41q34 12 70 12q6 0 13 -1 q42 -2 79 -19q23 -10 33 -26v40h93l-1 -427h-91v31q-37 -25 -83 -34q-21 -4 -42 -4q-24 0 -47 5q-44 10 -81 34.5t-60.5 70t-24.5 104.5zM119 210q0 -45 21.5 -78.5t54.5 -45.5q32 -12 65 -12h2q35 1 64 23.5t39 59.5q3 12 3 40v15q-1 41 -3 54q-9 34 -31 55.5t-50 28.5 q-15 4 -31 4q-13 0 -25 -2q-30 -6 -54 -23.5t-39.5 -48.5t-15.5 -70z" />
<glyph unicode="&#xe8;" horiz-adv-x="470" d="M160 688l140 -147l-50 -47l-152 121zM452 81q-28 -36 -82 -61q-29 -14 -72 -19q-20 -2 -40 -2q-27 0 -51 4q-56 11 -96 43.5t-58 75.5q-18 42 -18 89q0 51 19 95t59.5 77.5t94.5 44.5q27 5 56 5q27 0 50 -4q60 -12 96.5 -52t46.5 -91q5 -25 5 -51.5t-5 -54.5l-325 -1 q12 -42 40.5 -64t89.5 -27q12 -2 27.5 -0.5t41.5 11t45 27.5l1 1l75 -45v-1zM373 252q-9 104 -110 104q-56 0 -90 -32t-39 -73z" />
<glyph unicode="&#xe9;" horiz-adv-x="470" d="M339 688l62 -73l-152 -121l-50 47zM452 81q-28 -36 -82 -61q-29 -14 -72 -19q-20 -2 -40 -2q-27 0 -51 4q-56 11 -96 43.5t-58 75.5q-18 42 -18 89q0 51 19 95t59.5 77.5t94.5 44.5q27 5 56 5q27 0 50 -4q60 -12 96.5 -52t46.5 -91q5 -25 5 -51.5t-5 -54.5l-325 -1 q12 -42 40.5 -64t89.5 -27q12 -2 27.5 -0.5t41.5 11t45 27.5l1 1l75 -45v-1zM373 252q-9 104 -110 104q-56 0 -90 -32t-39 -73z" />
<glyph unicode="&#xea;" horiz-adv-x="500" d="M410 495h-87l-53 78l-59 -78l-92 -1l152 205zM452 81q-28 -36 -82 -61q-29 -14 -72 -19q-20 -2 -40 -2q-27 0 -51 4q-56 11 -96 43.5t-58 75.5q-18 42 -18 89q0 51 19 95t59.5 77.5t94.5 44.5q27 5 56 5q27 0 50 -4q60 -12 96.5 -52t46.5 -91q5 -25 5 -51.5t-5 -54.5 l-325 -1q12 -42 40.5 -64t89.5 -27q12 -2 27.5 -0.5t41.5 11t45 27.5l1 1l75 -45v-1zM373 252q-9 104 -110 104q-56 0 -90 -32t-39 -73z" />
<glyph unicode="&#xeb;" horiz-adv-x="500" d="M83 559q0 27 18 43t40 16t40 -15t18 -42q0 -29 -18 -45.5t-40 -16.5t-40 16t-18 44zM331 554q0 27 18 43t40 16t40 -15t18 -42q0 -29 -18 -45.5t-40 -16.5t-40 16t-18 44zM452 81q-28 -36 -82 -61q-29 -14 -72 -19q-20 -2 -40 -2q-27 0 -51 4q-56 11 -96 43.5t-58 75.5 q-18 42 -18 89q0 51 19 95t59.5 77.5t94.5 44.5q27 5 56 5q27 0 50 -4q60 -12 96.5 -52t46.5 -91q5 -25 5 -51.5t-5 -54.5l-325 -1q12 -42 40.5 -64t89.5 -27q12 -2 27.5 -0.5t41.5 11t45 27.5l1 1l75 -45v-1zM373 252q-9 104 -110 104q-56 0 -90 -32t-39 -73z" />
<glyph unicode="&#xec;" d="M15 688l140 -147l-50 -47l-152 121zM59 433h92v-435h-90z" />
<glyph unicode="&#xed;" d="M195 688l62 -73l-152 -121l-50 47zM59 433h92v-435h-90z" />
<glyph unicode="&#xee;" d="M250 495h-87l-53 78l-59 -78l-92 -1l152 205zM59 433h92v-435h-90z" />
<glyph unicode="&#xef;" d="M59 559q0 27 18 43t40 16t40 -15t18 -42q0 -29 -18 -45.5t-40 -16.5t-40 16t-18 44zM307 554q0 27 18 43t40 16t40 -15t18 -42q0 -29 -18 -45.5t-40 -16.5t-40 16t-18 44zM195 433h92v-435h-90z" />
<glyph unicode="&#xf1;" horiz-adv-x="426" d="M239 553q7 -14 21 -15.5t23 9t2 24.5v1l-1 1l42 19v-1q7 -16 7 -31q0 -7 -2 -14q-5 -21 -23 -32.5t-39 -15.5q-6 -1 -12 -1q-14 0 -28 6q-20 9 -30 30zM199 533q-7 14 -21 15.5t-23 -9t-2 -24.5v-1l1 -1l-42 -19v1q-7 16 -7 31q0 7 2 14q5 21 23 32.5t39 15.5q6 1 12 1 q14 0 28 -6q20 -9 30 -30zM404 230l-1 -230h-94v66q0 32 0.5 69t0.5 104q0 39 -14 66t-34 38q-19 10 -39 10q-3 0 -6 -1q-24 -1 -45 -13.5t-34.5 -37.5t-13.5 -57l2 -244h-90l-1 429h93v-33q5 3 46 24q19 9 74 9q86 0 121 -51.5t35 -147.5z" />
<glyph unicode="&#xf2;" horiz-adv-x="499" d="M160 688l140 -147l-50 -47l-152 121zM248 362q-43 0 -75 -21t-47 -51q-15 -32 -15 -69q0 -35 14 -65q14 -31 45.5 -51.5t74.5 -20.5q66 0 105 43q26 29 33 69q3 16 3 31q0 24 -8 47q-11 36 -45.5 62t-84.5 26zM249 434q72 0 124 -32t75 -80q23 -47 23 -102 q0 -58 -25 -108q-24 -48 -77 -80t-124 -32q-72 0 -125 32t-76 80q-22 47 -22 101q0 59 26 109q24 48 77 80t124 32z" />
<glyph unicode="&#xf3;" horiz-adv-x="499" d="M339 688l62 -73l-152 -121l-50 47zM248 362q-43 0 -75 -21t-47 -51q-15 -32 -15 -69q0 -35 14 -65q14 -31 45.5 -51.5t74.5 -20.5q66 0 105 43q26 29 33 69q3 16 3 31q0 24 -8 47q-11 36 -45.5 62t-84.5 26zM249 434q72 0 124 -32t75 -80q23 -47 23 -102q0 -58 -25 -108 q-24 -48 -77 -80t-124 -32q-72 0 -125 32t-76 80q-22 47 -22 101q0 59 26 109q24 48 77 80t124 32z" />
<glyph unicode="&#xf4;" horiz-adv-x="499" d="M395 495h-87l-53 78l-59 -78l-92 -1l152 205zM248 362q-43 0 -75 -21t-47 -51q-15 -32 -15 -69q0 -35 14 -65q14 -31 45.5 -51.5t74.5 -20.5q66 0 105 43q26 29 33 69q3 16 3 31q0 24 -8 47q-11 36 -45.5 62t-84.5 26zM249 434q72 0 124 -32t75 -80q23 -47 23 -102 q0 -58 -25 -108q-24 -48 -77 -80t-124 -32q-72 0 -125 32t-76 80q-22 47 -22 101q0 59 26 109q24 48 77 80t124 32z" />
<glyph unicode="&#xf5;" horiz-adv-x="499" d="M266 554q7 -14 21 -15.5t23 9t2 24.5v1l-1 1l42 19v-1q7 -16 7 -31q0 -7 -2 -14q-5 -21 -23 -32.5t-39 -15.5q-6 -1 -12 -1q-14 0 -28 6q-20 9 -30 30zM226 534q-7 14 -21 15.5t-23 -9t-2 -24.5v-1l1 -1l-42 -19v1q-7 16 -7 31q0 7 2 14q5 21 23 32.5t39 15.5q6 1 12 1 q14 0 28 -6q20 -9 30 -30zM248 362q-43 0 -75 -21t-47 -51q-15 -32 -15 -69q0 -35 14 -65q14 -31 45.5 -51.5t74.5 -20.5q66 0 105 43q26 29 33 69q3 16 3 31q0 24 -8 47q-11 36 -45.5 62t-84.5 26zM249 434q72 0 124 -32t75 -80q23 -47 23 -102q0 -58 -25 -108 q-24 -48 -77 -80t-124 -32q-72 0 -125 32t-76 80q-22 47 -22 101q0 59 26 109q24 48 77 80t124 32z" />
<glyph unicode="&#xf6;" horiz-adv-x="567" d="M248 362q-43 0 -75 -21t-47 -51q-15 -32 -15 -69q0 -35 14 -65q14 -31 45.5 -51.5t74.5 -20.5q66 0 105 43q26 29 33 69q3 16 3 31q0 24 -8 47q-11 36 -45.5 62t-84.5 26zM249 434q72 0 124 -32t75 -80q23 -47 23 -102q0 -58 -25 -108q-24 -48 -77 -80t-124 -32 q-72 0 -125 32t-76 80q-22 47 -22 101q0 59 26 109q24 48 77 80t124 32zM74 574q0 27 18 43t40 16t40 -15t18 -42q0 -29 -18 -45.5t-40 -16.5t-40 16t-18 44zM322 569q0 27 18 43t40 16t40 -15t18 -42q0 -29 -18 -45.5t-40 -16.5t-40 16t-18 44z" />
<glyph unicode="&#xf9;" horiz-adv-x="472" d="M41 199q0 70 0.5 109t0.5 48v28v45h94v-239q0 -39 13.5 -63.5t34.5 -32.5q11 -4 24 -4q10 0 20 2q23 6 43.5 22t34.5 43t14 59l-1 213h91l1 -429h-93l-2 64q-8 -5 -25 -24t-27 -24q-32 -16 -66 -16q-87 0 -122 51.5t-35 147.5zM137 688l140 -147l-50 -47l-152 121z" />
<glyph unicode="&#xfa;" horiz-adv-x="472" d="M41 199q0 70 0.5 109t0.5 48v28v45h94v-239q0 -39 13.5 -63.5t34.5 -32.5q11 -4 24 -4q10 0 20 2q23 6 43.5 22t34.5 43t14 59l-1 213h91l1 -429h-93l-2 64q-8 -5 -25 -24t-27 -24q-32 -16 -66 -16q-87 0 -122 51.5t-35 147.5zM320 688l62 -73l-152 -121l-50 47z" />
<glyph unicode="&#xfb;" horiz-adv-x="472" d="M41 199q0 70 0.5 109t0.5 48v28v45h94v-239q0 -39 13.5 -63.5t34.5 -32.5q11 -4 24 -4q10 0 20 2q23 6 43.5 22t34.5 43t14 59l-1 213h91l1 -429h-93l-2 64q-8 -5 -25 -24t-27 -24q-32 -16 -66 -16q-87 0 -122 51.5t-35 147.5zM374 495h-87l-53 78l-59 -78l-92 -1 l152 205z" />
<glyph unicode="&#xfc;" horiz-adv-x="472" d="M43 562q0 27 18 43t40 16t40 -15t18 -42q0 -29 -18 -45.5t-40 -16.5t-40 16t-18 44zM291 557q0 27 18 43t40 16t40 -15t18 -42q0 -29 -18 -45.5t-40 -16.5t-40 16t-18 44zM41 199q0 70 0.5 109t0.5 48v28v45h94v-239q0 -39 13.5 -63.5t34.5 -32.5q11 -4 24 -4q10 0 20 2 q23 6 43.5 22t34.5 43t14 59l-1 213h91l1 -429h-93l-2 64q-8 -5 -25 -24t-27 -24q-32 -16 -66 -16q-87 0 -122 51.5t-35 147.5z" />
<glyph unicode="&#xfd;" horiz-adv-x="462" />
<glyph unicode="&#xff;" horiz-adv-x="462" d="M179 559q0 27 18 43t40 16t40 -15t18 -42q0 -29 -18 -45.5t-40 -16.5t-40 16t-18 44zM427 554q0 27 18 43t40 16t40 -15t18 -42q0 -29 -18 -45.5t-40 -16.5t-40 16t-18 44zM183 75l-164 352l96 1l118 -247l128 249l91 -1l-306 -629h-107z" />
<glyph unicode="&#x131;" d="M59 433h92v-435h-90z" />
<glyph unicode="&#x152;" horiz-adv-x="1235" d="M806 693h366v-85h-274v-196h196v-83h-196v-247h283v-82h-375v693zM354 627q-58 0 -104.5 -23.5t-74.5 -62t-43 -87.5q-14 -46 -14 -94v-6q1 -51 18 -100.5t47 -87.5t78.5 -61.5t108.5 -23.5q61 0 112 23.5t82.5 62t48.5 87.5q18 51 18 104q0 50 -18 98q-18 49 -50.5 87.5 t-86.5 61.5q-52 22 -116 22h-6zM361 707q89 0 160.5 -31t115.5 -81t67 -114q24 -63 24 -128q-1 -68 -24 -133q-24 -63 -67.5 -112.5t-113.5 -80t-155 -30.5q-83 0 -150 30.5t-108 80.5t-63 113.5t-22 130.5t21.5 130.5t62 113.5t106 80.5t146.5 30.5z" />
<glyph unicode="&#x153;" horiz-adv-x="999" d="M951 81q-28 -36 -82 -61q-29 -14 -72 -19q-20 -2 -40 -2q-27 0 -51 4q-56 11 -96 43.5t-58 75.5q-18 42 -18 89q0 51 19 95t59.5 77.5t94.5 44.5q27 5 56 5q27 0 50 -4q60 -12 96.5 -52t46.5 -91q5 -25 5 -51.5t-5 -54.5l-325 -1q12 -42 40.5 -64t89.5 -27 q12 -2 27.5 -0.5t41.5 11t45 27.5l1 1l75 -45v-1zM872 252q-9 104 -110 104q-56 0 -90 -32t-39 -73zM248 362q-43 0 -75 -21t-47 -51q-15 -32 -15 -69q0 -35 14 -65q14 -31 45.5 -51.5t74.5 -20.5q66 0 105 43q26 29 33 69q3 16 3 31q0 24 -8 47q-11 36 -45.5 62t-84.5 26z M249 434q72 0 124 -32t75 -80q23 -47 23 -102q0 -58 -25 -108q-24 -48 -77 -80t-124 -32q-72 0 -125 32t-76 80q-22 47 -22 101q0 59 26 109q24 48 77 80t124 32z" />
<glyph unicode="&#x178;" horiz-adv-x="604" d="M120 832q0 27 18 43t40 16t40 -15t18 -42q0 -29 -18 -45.5t-40 -16.5t-40 16t-18 44zM368 827q0 27 18 43t40 16t40 -15t18 -42q0 -29 -18 -45.5t-40 -16.5t-40 16t-18 44zM16 692h106l182 -274l178 274h106l-234 -358v-331l-106 -3l7 330h1z" />
<glyph unicode="&#x2c6;" horiz-adv-x="605" d="M448 530h-87l-53 78l-59 -78l-92 -1l152 205z" />
<glyph unicode="&#x2dc;" horiz-adv-x="351" d="M20 119q7 -14 21 -15.5t23 9t2 24.5v1l-1 1l42 19v-1q7 -16 7 -31q0 -7 -2 -14q-5 -21 -23 -32.5t-39 -15.5q-6 -1 -12 -1q-14 0 -28 6q-20 9 -30 30zM-20 99q-7 14 -21 15.5t-23 -9t-2 -24.5v-1l1 -1l-42 -19v1q-7 16 -7 31q0 7 2 14q5 21 23 32.5t39 15.5q6 1 12 1 q14 0 28 -6q20 -9 30 -30z" />
<glyph unicode="&#x2000;" horiz-adv-x="498" />
<glyph unicode="&#x2001;" horiz-adv-x="996" />
<glyph unicode="&#x2002;" horiz-adv-x="498" />
<glyph unicode="&#x2003;" horiz-adv-x="996" />
<glyph unicode="&#x2004;" horiz-adv-x="332" />
<glyph unicode="&#x2005;" horiz-adv-x="249" />
<glyph unicode="&#x2006;" horiz-adv-x="166" />
<glyph unicode="&#x2007;" horiz-adv-x="166" />
<glyph unicode="&#x2008;" horiz-adv-x="124" />
<glyph unicode="&#x2009;" horiz-adv-x="199" />
<glyph unicode="&#x200a;" horiz-adv-x="55" />
<glyph unicode="&#x2010;" horiz-adv-x="470" d="M438 217h-389v90l389 1v-91z" />
<glyph unicode="&#x2011;" horiz-adv-x="470" d="M438 217h-389v90l389 1v-91z" />
<glyph unicode="&#x2013;" horiz-adv-x="500" d="M49 217v91h419v-91h-419z" />
<glyph unicode="&#x2014;" horiz-adv-x="1000" d="M49 217v91h919v-91h-919z" />
<glyph unicode="&#x2018;" horiz-adv-x="187" d="M127 620q1 -4 1 -7q0 -15 -10 -27q-13 -14 -29 -18q-4 -2 -9 -2q-11 0 -22 9q-15 12 -18 41v10q0 39 22 73q24 38 51 47q-11 -16 -12 -52v-5q0 -32 11 -44q15 -11 15 -25z" />
<glyph unicode="&#x2019;" horiz-adv-x="187" d="M56 682q-1 5 -1 10q0 13 8 24q11 16 27 22q5 1 10 1q10 0 21 -7q16 -11 21 -39q1 -10 1 -19q0 -34 -17 -65q-21 -40 -46 -51q7 13 7 40v13q-2 37 -15 47q-15 10 -16 24z" />
<glyph unicode="&#x201c;" horiz-adv-x="292" d="M250 622v-5q0 -15 -10 -28q-12 -15 -28 -19q-5 -1 -9 -1q-12 0 -23 9q-15 12 -18 40v7q0 41 22 76q24 38 51 47q-12 -16 -12 -55q0 -34 11 -45q15 -11 16 -26zM127 620q1 -4 1 -7q0 -15 -10 -27q-13 -14 -29 -18q-4 -2 -9 -2q-11 0 -22 9q-15 12 -18 41v10q0 39 22 73 q24 38 51 47q-11 -16 -12 -52v-5q0 -32 11 -44q15 -11 15 -25z" />
<glyph unicode="&#x201d;" horiz-adv-x="358" d="M191 685q-1 5 -1 9q0 13 8 25q11 16 26 21q5 2 11 2q10 0 21 -8q16 -10 21 -38q1 -10 1 -19q0 -35 -16 -65q-22 -40 -47 -52q7 13 7 40v13q-2 37 -15 48q-15 10 -16 24zM56 682q-1 5 -1 10q0 13 8 24q11 16 27 22q5 1 10 1q10 0 21 -7q16 -11 21 -39q1 -10 1 -19 q0 -34 -17 -65q-21 -40 -46 -51q7 13 7 40v13q-2 37 -15 47q-15 10 -16 24z" />
<glyph unicode="&#x2026;" horiz-adv-x="570" d="M395 60q0 27 18 42.5t40 15.5l1 1q22 0 39 -15q18 -15 18 -42q0 -29 -18 -45.5t-40 -16.5t-40 16t-18 44zM205 60q0 27 18 42.5t40 15.5l1 1q22 0 39 -15q18 -15 18 -42q0 -29 -18 -45.5t-40 -16.5t-40 16t-18 44zM15 60q0 27 18 42.5t40 15.5l1 1q22 0 39 -15 q18 -15 18 -42q0 -29 -18 -45.5t-40 -16.5t-40 16t-18 44z" />
<glyph unicode="&#x202f;" horiz-adv-x="199" />
<glyph unicode="&#x2039;" horiz-adv-x="618" d="M535 596v-100l-251 -125l246 -132l-1 -103l-370 195l-76 43l59 28z" />
<glyph unicode="&#x203a;" horiz-adv-x="618" d="M83 596l393 -194l59 -28l-76 -43l-370 -195l-1 103l246 132l-251 125v100z" />
<glyph unicode="&#x205f;" horiz-adv-x="249" />
<glyph unicode="&#x20ac;" horiz-adv-x="715" d="M569 293l-30 -82h-514l30 82h514zM621 455l-32 -80h-558l26 80h564zM679 641l-28 -84q-11 21 -58 40q-36 15 -99 17h-10q-76 0 -148 -44q-76 -48 -112 -125q-27 -58 -27 -114q0 -45 17 -88q37 -99 141 -147q51 -24 107 -25h6q53 0 100 17q49 18 95 52v-99 q-44 -40 -75 -46.5t-89 -10.5q-18 -1 -36 -1q-38 0 -73 5q-52 8 -85 25q-139 72 -185 201q-19 52 -19 107q0 79 39 162q49 105 146 163q89 54 191 54h18q58 -2 127 -30q38 -16 57 -29z" />
<glyph unicode="&#x2122;" horiz-adv-x="1224" d="M859 330l285 389l35 -723h-86l-31 461l-203 -267l-207 270l-31 -461h-86l35 724zM16 686h458v-80l-182 -1l-4 -605h-92v1l3 604l-183 1v80z" />
</font>
</defs>
</svg>
